<svg width="64" height="64" viewBox="0 0 64 64" fill="none" xmlns="http://www.w3.org/2000/svg">
<path d="M62 31.125H53.944V19.019H56.1676C56.555 20.4771 57.8859 21.5549 59.4641 21.5549C61.3449 21.5549 62.875 20.0247 62.875 18.144C62.875 16.2632 61.3449 14.7331 59.4641 14.7331C57.8859 14.7331 56.555 15.8109 56.1676 17.269H53.069C52.8369 17.269 52.6144 17.3612 52.4503 17.5253C52.2862 17.6894 52.194 17.9119 52.194 18.144V31.125H46.6605C46.4284 31.125 46.2059 31.2172 46.0418 31.3813C45.8777 31.5454 45.7855 31.7679 45.7855 32C45.7855 39.6014 39.6012 45.7855 32 45.7855C24.3988 45.7855 18.2146 39.6014 18.2146 32C18.2146 31.7679 18.1224 31.5454 17.9583 31.3813C17.7942 31.2172 17.5717 31.125 17.3396 31.125H11.806V18.144C11.806 17.9119 11.7138 17.6894 11.5497 17.5253C11.3856 17.3612 11.1631 17.269 10.931 17.269H7.83238C7.445 15.8109 6.11412 14.7331 4.53587 14.7331C2.65512 14.7331 1.125 16.2632 1.125 18.144C1.125 20.0247 2.65512 21.5549 4.53587 21.5549C6.11412 21.5549 7.445 20.4771 7.83238 19.019H10.056V31.125H2C1.76794 31.125 1.54538 31.2172 1.38128 31.3813C1.21719 31.5454 1.125 31.7679 1.125 32V34.9999C1.125 36.5689 2.40163 37.8455 3.97075 37.8455C6.34313 37.8455 8.38188 39.2098 9.2915 41.4059C10.2013 43.6021 9.72437 46.0086 8.04675 47.6861C7.7817 47.9498 7.57157 48.2634 7.42852 48.6088C7.28547 48.9542 7.21234 49.3245 7.21338 49.6984C7.21234 50.0722 7.28546 50.4426 7.42851 50.788C7.57156 51.1334 7.78169 51.447 8.04675 51.7106L12.2894 55.9533C13.399 57.0626 15.2041 57.0626 16.3137 55.9533C17.9935 54.2734 20.4007 53.7944 22.5959 54.7038C24.791 55.6129 26.1545 57.6536 26.1545 60.0293C26.1545 61.5984 27.431 62.8749 29.0001 62.8749H34.9999C36.569 62.8749 37.8455 61.5984 37.8455 60.0293C37.8455 57.6569 39.2098 55.6181 41.4059 54.7085C43.6026 53.7985 46.0087 54.2757 47.6862 55.9533C48.7959 57.0626 50.6011 57.0626 51.7108 55.9533L55.9531 51.7108C56.4906 51.1733 56.7866 50.4586 56.7866 49.6984C56.7866 48.9381 56.4906 48.2235 55.9533 47.6861C54.2756 46.0086 53.7987 43.6022 54.7084 41.4059C55.6181 39.2098 57.657 37.8454 60.0293 37.8454C61.5984 37.8454 62.8749 36.5689 62.8749 34.9997V32C62.8749 31.8851 62.8523 31.7713 62.8083 31.6651C62.7644 31.559 62.7 31.4625 62.6187 31.3813C62.5375 31.3 62.441 31.2355 62.3349 31.1916C62.2287 31.1476 62.1149 31.125 62 31.125ZM59.4641 16.4831C60.3799 16.4831 61.125 17.2281 61.125 18.144C61.125 19.0599 60.3799 19.8049 59.4641 19.8049C58.5484 19.8049 57.8034 19.0599 57.8034 18.144C57.8034 17.2281 58.5484 16.4831 59.4641 16.4831ZM4.53587 19.8048C3.62012 19.8048 2.875 19.0597 2.875 18.1439C2.875 17.228 3.62012 16.483 4.53587 16.483C5.45162 16.483 6.19663 17.228 6.19663 18.1439C6.19663 19.0597 5.45162 19.8048 4.53587 19.8048ZM61.125 34.9999C61.125 35.604 60.6335 36.0955 60.0294 36.0955C56.9357 36.0955 54.2774 37.8738 53.0918 40.7363C51.906 43.5989 52.5283 46.7361 54.7158 48.9236C54.9226 49.1305 55.0366 49.4058 55.0366 49.6985C55.0366 49.9913 54.9228 50.2664 54.7158 50.4734L50.4734 54.7159C50.0461 55.1431 49.3507 55.143 48.9238 54.7159C46.7363 52.5284 43.5991 51.906 40.7363 53.0918C37.8738 54.2775 36.0955 56.9357 36.0955 60.0294C36.0955 60.6335 35.604 61.125 34.9999 61.125H29.0001C28.396 61.125 27.9045 60.6335 27.9045 60.0294C27.9045 56.9324 26.127 54.2723 23.2658 53.087C22.3068 52.6898 21.3171 52.4959 20.3421 52.4959C18.4079 52.4959 16.5323 53.2599 15.0763 54.7159C14.6491 55.1431 13.9537 55.1429 13.5267 54.7159L9.28413 50.4733C9.07725 50.2664 8.96338 49.9913 8.96338 49.6985C8.96338 49.4058 9.07725 49.1306 9.28425 48.9236C11.4718 46.7361 12.094 43.5989 10.9082 40.7363C9.7225 37.8738 7.06413 36.0955 3.97062 36.0955C3.3665 36.0955 2.87488 35.604 2.87488 34.9999V32.875H16.4888C16.9446 41.0356 23.7275 47.5355 32 47.5355C40.2725 47.5355 47.0555 41.0355 47.5112 32.875H61.125V34.9999ZM10.931 7.94663C12.5092 7.94663 13.8401 6.86888 14.2275 5.41075H20.5904V32C20.5904 38.2913 25.7086 43.4095 31.9999 43.4095C38.291 43.4095 43.4092 38.2913 43.4092 32V5.41087H49.7723C50.1596 6.869 51.4905 7.94675 53.0687 7.94675C54.9495 7.94675 56.4796 6.41663 56.4796 4.53587C56.4796 2.65512 54.9497 1.125 53.069 1.125C51.4907 1.125 50.1599 2.20275 49.7725 3.66088H42.5345C42.3024 3.66088 42.0799 3.75306 41.9158 3.91716C41.7517 4.08125 41.6595 4.30381 41.6595 4.53587V31.125H32.875V14.6365C34.3331 14.2491 35.4108 12.9183 35.4108 11.34C35.4108 9.45925 33.8807 7.92912 32 7.92912C30.1192 7.92912 28.5891 9.45925 28.5891 11.34C28.5891 12.9183 29.667 14.2491 31.125 14.6365V31.125H22.3405V4.53587C22.3405 4.30381 22.2483 4.08125 22.0842 3.91716C21.9201 3.75306 21.6976 3.66088 21.4655 3.66088H14.2275C13.8401 2.20275 12.5094 1.125 10.931 1.125C9.05025 1.125 7.52012 2.65512 7.52012 4.53587C7.52012 6.41663 9.05025 7.94663 10.931 7.94663ZM53.069 2.875C53.9847 2.875 54.7299 3.62 54.7299 4.53587C54.7299 5.45175 53.9847 6.19675 53.069 6.19675C52.1533 6.19675 51.4082 5.45175 51.4082 4.53587C51.4082 3.62 52.1533 2.875 53.069 2.875ZM30.3391 11.3399C30.3391 10.4241 31.0842 9.679 32 9.679C32.9158 9.679 33.6608 10.424 33.6608 11.3399C33.6608 12.2558 32.9158 13.0007 32 13.0007C31.0842 13.0007 30.3391 12.2556 30.3391 11.3399ZM41.6201 32.875C41.1766 37.7929 37.0314 41.6595 32 41.6595C26.9685 41.6595 22.8232 37.7929 22.3797 32.875H41.6201ZM10.931 2.875C11.8468 2.875 12.5918 3.62 12.5918 4.53587C12.5918 5.45175 11.8468 6.19675 10.931 6.19675C10.0152 6.19675 9.27013 5.45175 9.27013 4.53587C9.27013 3.62 10.0152 2.875 10.931 2.875Z" fill="#EB3609"/>
</svg>
