<svg width="24" height="27" viewBox="0 0 24 27" fill="none" xmlns="http://www.w3.org/2000/svg">
<path d="M0.358398 0L23.813 13.3909L0.358398 0Z" fill="#132436"/>
<path d="M5.58444 15.895C4.30373 18.8174 7.52049 21.6595 10.2906 20.076C13.1667 18.4319 12.1384 14.2611 8.82556 14.2831C8.22674 14.2871 7.62832 14.293 7.02995 14.3003C6.80728 14.3337 6.59536 14.4173 6.41051 14.5445C6.22566 14.6718 6.07284 14.8393 5.96384 15.0342C5.83676 15.3208 5.71036 15.6076 5.58444 15.895Z" fill="#132436"/>
<path d="M23.8146 13.3773L1.45725 26.1544C0.958705 26.4393 0.35249 25.94 0.573215 25.4099C2.0907 21.8006 3.59158 18.1832 5.15614 14.5959C5.34318 14.2114 5.44029 13.7902 5.44029 13.3636C5.44029 12.9369 5.34318 12.5157 5.15614 12.1313C3.61927 8.57133 2.13778 5.01139 0.639671 1.45144C0.467984 1.04342 0.321214 0.629916 0.166142 0.210938" fill="#EB3609"/>
<path d="M1.73535 24.9665C3.24453 21.3819 4.56266 18.1943 5.95277 15.0342C6.06287 14.838 6.21741 14.6696 6.40429 14.5423C6.59117 14.415 6.80531 14.3321 7.02995 14.3003C11.3 14.2483 15.5728 14.2674 19.9729 14.5413L1.73535 24.9665Z" fill="white"/>
</svg>
