<svg width="40" height="40" viewBox="0 0 40 40" fill="none" xmlns="http://www.w3.org/2000/svg">
<g clip-path="url(#clip0_828_82504)">
<path d="M24.7916 17.5523C24.7916 20.1898 22.6392 22.3422 20.0017 22.3422C17.3619 22.3422 15.2095 20.1898 15.2095 17.5523C15.2095 14.9125 17.3619 12.7602 20.0017 12.7602C22.6392 12.7602 24.7916 14.9125 24.7916 17.5523ZM32.7533 15.6992C31.358 14.8844 29.5509 15.3578 28.7361 16.7531L24.0259 24.8188C23.8001 25.2063 23.3548 25.3883 22.9205 25.2703C20.8853 24.7188 19.1158 24.7188 17.0806 25.2703C16.6462 25.3875 16.2017 25.2063 15.9759 24.8188L11.2658 16.7531C10.4509 15.3578 8.6439 14.8844 7.24859 15.6992C5.85327 16.5141 5.37749 18.3211 6.19234 19.7164L13.1353 31.6039C13.2283 31.7609 13.2705 31.9164 13.2705 32.0977V39.018C13.2705 39.5586 13.7111 40.0016 14.2541 40.0016H25.7501C26.2923 40.0016 26.7337 39.5586 26.7337 39.018V32.0977C26.7337 31.9164 26.7759 31.7609 26.8689 31.6039L33.8119 19.7164C34.622 18.3211 34.1486 16.5141 32.7533 15.6992ZM15.1517 4.24531L17.3533 5.83516C17.5392 5.97031 17.6142 6.20078 17.5416 6.41953L16.6978 8.99922C16.6267 9.21875 16.7001 9.44844 16.8861 9.58359C17.072 9.71875 17.3134 9.71875 17.4994 9.58359L19.6939 7.98281C19.8798 7.84766 20.1212 7.84766 20.3072 7.98281L22.5017 9.58359C22.6853 9.71875 22.9291 9.71875 23.115 9.58359C23.3009 9.44844 23.3744 9.21797 23.3033 8.99922L22.4595 6.41953C22.3861 6.2 22.4619 5.97031 22.6478 5.83516L24.8494 4.24531C25.0353 4.11016 25.1103 3.87969 25.0376 3.66094C24.9666 3.44375 24.772 3.30234 24.5416 3.30234L21.8267 3.30703C21.5962 3.30703 21.4017 3.16562 21.3306 2.94609L20.4955 0.360938C20.4244 0.14375 20.2298 0 19.9994 0C19.7712 0 19.5744 0.14375 19.5056 0.360938L18.6705 2.94531C18.5994 3.16484 18.4048 3.30625 18.1744 3.30625L15.4595 3.30156C15.2291 3.30156 15.0345 3.44297 14.9611 3.66016C14.8908 3.87969 14.9658 4.11016 15.1517 4.24531ZM24.783 11.5906C25.0619 11.8102 25.465 11.7633 25.6869 11.4844L28.2205 8.28672C28.44 8.00781 28.3908 7.60469 28.1142 7.38516C27.8353 7.16406 27.4322 7.2125 27.2103 7.48906L24.6767 10.6891C24.4572 10.9664 24.5041 11.3719 24.783 11.5906ZM26.3861 13.4516C26.5658 13.757 26.9572 13.8633 27.265 13.6844L30.7994 11.6445C31.1072 11.4672 31.2111 11.0734 31.0337 10.7656C30.8541 10.4578 30.4603 10.3539 30.1548 10.5312L26.6205 12.5711C26.3134 12.7492 26.2095 13.1437 26.3861 13.4516ZM14.315 11.4844C14.4209 11.6182 14.5755 11.7045 14.745 11.7244C14.9144 11.7443 15.0849 11.6962 15.2189 11.5906C15.4955 11.3711 15.5447 10.9664 15.3251 10.6891L12.7916 7.48906C12.5705 7.2125 12.1673 7.16328 11.8876 7.38516C11.6111 7.60469 11.5619 8.00781 11.7814 8.28672L14.315 11.4844ZM9.20093 11.6437L12.7353 13.6836C13.0408 13.8633 13.4353 13.757 13.6142 13.4508C13.7916 13.143 13.6876 12.7484 13.3798 12.5695L9.84546 10.5297C9.69781 10.4443 9.5223 10.421 9.3575 10.465C9.1927 10.5089 9.05209 10.6165 8.96656 10.7641C8.78921 11.0727 8.89312 11.4672 9.20093 11.6437Z" fill="#EB3609"/>
</g>
<defs>
<clipPath id="clip0_828_82504">
<rect width="40" height="40" fill="white"/>
</clipPath>
</defs>
</svg>
