<svg width="23" height="23" viewBox="0 0 23 23" fill="none" xmlns="http://www.w3.org/2000/svg">
<path d="M11.5 0C5.14894 0 0 5.14894 0 11.5C0 17.851 5.14894 23 11.5 23C17.851 23 23 17.851 23 11.5C23 5.14894 17.851 0 11.5 0ZM18.0837 8.08909L18.0797 8.09313C18.0779 8.09554 18.0754 8.09741 18.0725 8.09852C18.0697 8.09962 18.0665 8.09994 18.0635 8.09942L8.51854 17.6444L4.65974 13.7856C4.53964 13.6656 4.44435 13.5231 4.37933 13.3662C4.3143 13.2093 4.28082 13.0411 4.28077 12.8713C4.28073 12.7015 4.31414 12.5333 4.37909 12.3764C4.44403 12.2195 4.53925 12.077 4.6593 11.9569C4.77934 11.8367 4.92187 11.7415 5.07874 11.6764C5.23562 11.6114 5.40378 11.5779 5.57359 11.5779C5.7434 11.5778 5.91156 11.6112 6.06848 11.6762C6.22538 11.7411 6.36795 11.8364 6.48807 11.9564L8.51763 13.986L16.2343 6.2702C16.4762 6.02798 16.8039 5.89119 17.1462 5.88962C17.4885 5.88807 17.8175 6.02189 18.0616 6.26191C18.3057 6.50191 18.445 6.82867 18.449 7.17093C18.4532 7.51319 18.3219 7.84323 18.0837 8.08909Z" fill="#EB3609"/>
</svg>
