<svg width="35" height="35" viewBox="0 0 35 35" fill="none" xmlns="http://www.w3.org/2000/svg">
<path fill-rule="evenodd" clip-rule="evenodd" d="M15.1747 32.6797C6.80406 32.6797 0 25.8743 0 17.5039C0 9.13348 6.80406 2.32812 15.1747 2.32812C19.0128 2.32812 22.6151 3.72198 25.4212 6.29489C24.4859 6.84949 23.5842 7.45892 22.7208 8.11999C20.5846 6.39462 17.9206 5.45551 15.1747 5.45987C8.54101 5.45987 3.13152 10.8698 3.13152 17.5039C3.13152 24.1381 8.54101 29.5471 15.1747 29.5471C24.4045 29.5471 29.8842 19.6803 25.9145 12.0092C26.6955 11.2827 27.5041 10.5866 28.3387 9.92248C29.667 12.216 30.3494 14.8171 30.3494 17.5031C30.3494 25.8743 23.5453 32.6797 15.1747 32.6797Z" fill="#27C840"/>
<path fill-rule="evenodd" clip-rule="evenodd" d="M15.5737 25.305C15.4935 25.3038 15.4155 25.2788 15.3495 25.2332C15.2835 25.1877 15.2326 25.1236 15.203 25.049C15.1748 24.9925 12.7264 18.6709 8.93998 16.2788C8.1995 15.8234 7.63021 15.3397 7.85792 14.2575C8.08564 13.2044 8.79705 12.606 10.0786 12.3218C12.3557 11.8372 14.8049 15.3679 15.715 16.8199C18.9046 12.1796 25.2815 4.89055 34.563 4.03615C35.0104 3.98366 35.1767 4.64748 34.7625 4.83322C34.6203 4.88975 21.353 10.9546 15.9718 25.0773C15.9315 25.1471 15.8735 25.205 15.8035 25.245C15.7336 25.285 15.6542 25.3057 15.5737 25.305Z" fill="#27C840"/>
</svg>
