<svg width="60" height="48" viewBox="0 0 60 48" fill="none" xmlns="http://www.w3.org/2000/svg">
<g clip-path="url(#clip0_1320_4172)">
<path opacity="0.1" d="M41.9999 24.0003C41.9999 12.2749 32.4945 2.76953 20.7691 2.76953C9.04367 2.76953 -0.46167 12.2749 -0.46167 24.0003C-0.46167 35.7257 9.04367 45.2311 20.7691 45.2311C32.4945 45.2311 41.9999 35.7257 41.9999 24.0003Z" fill="#EB3609"/>
<path d="M58.5 24C58.5 11.5736 48.4264 1.5 36 1.5C23.5736 1.5 13.5 11.5736 13.5 24C13.5 36.4264 23.5736 46.5 36 46.5C48.4264 46.5 58.5 36.4264 58.5 24Z" fill="#EB3609"/>
<path d="M57.6925 24.0015C57.6925 11.7663 47.7738 1.84766 35.5386 1.84766C23.3034 1.84766 13.3848 11.7663 13.3848 24.0015C13.3848 36.2367 23.3034 46.1554 35.5386 46.1554C47.7738 46.1554 57.6925 36.2367 57.6925 24.0015Z" stroke="white" stroke-width="2"/>
<path d="M24.8352 25.088C24.8352 21.151 24.8352 19.1825 26.0583 17.9594C27.2813 16.7363 29.2498 16.7363 33.1869 16.7363H37.3627C41.2997 16.7363 43.2682 16.7363 44.4913 17.9594C45.7143 19.1825 45.7143 21.151 45.7143 25.088C45.7143 29.025 45.7143 30.9935 44.4913 32.2166C43.2682 33.4396 41.2997 33.4396 37.3627 33.4396H33.1869C29.2498 33.4396 27.2813 33.4396 26.0583 32.2166C24.8352 30.9935 24.8352 29.025 24.8352 25.088Z" fill="white" stroke="white" stroke-width="1.5"/>
<path d="M45.3613 19.5762C42.2191 21.6186 40.648 22.6398 38.9918 23.1543C36.5709 23.9065 33.9788 23.9065 31.5579 23.1543C29.9017 22.6398 28.3306 21.6186 25.1885 19.5762" stroke="#EB3609" stroke-width="1.5" stroke-linecap="round"/>
<path d="M32.3212 14.6485C32.7511 13.432 33.9112 12.5605 35.2748 12.5605C36.6385 12.5605 37.7985 13.432 38.2285 14.6485" stroke="white" stroke-width="1.5" stroke-linecap="round"/>
</g>
<defs>
<clipPath id="clip0_1320_4172">
<rect width="60" height="48" fill="white"/>
</clipPath>
</defs>
</svg>
