<svg width="93" height="73" viewBox="0 0 93 73" fill="none" xmlns="http://www.w3.org/2000/svg">
<path opacity="0.1" d="M64.6997 36.4994C64.6997 18.667 50.2832 4.21094 32.4997 4.21094C14.7161 4.21094 0.299683 18.667 0.299683 36.4994C0.299683 54.3318 14.7161 68.7879 32.4997 68.7879C50.2832 68.7879 64.6997 54.3318 64.6997 36.4994Z" fill="#EB3609"/>
<path d="M89.725 36.5C89.725 17.6015 74.4467 2.28125 55.6 2.28125C36.7533 2.28125 21.475 17.6015 21.475 36.5C21.475 55.3985 36.7533 70.7188 55.6 70.7188C74.4467 70.7188 89.725 55.3985 89.725 36.5Z" fill="#EB3609"/>
<path d="M88.5002 36.5009C88.5002 17.8932 73.4569 2.80859 54.9002 2.80859C36.3434 2.80859 21.3002 17.8932 21.3002 36.5009C21.3002 55.1087 36.3434 70.1932 54.9002 70.1932C73.4569 70.1932 88.5002 55.1087 88.5002 36.5009Z" stroke="white" stroke-width="4"/>
<path d="M63.6666 19.461H45.3333C44.1102 19.3872 42.8855 19.5738 41.7399 20.0083C40.5943 20.4429 39.5539 21.1156 38.6875 21.982C37.8211 22.8483 37.1485 23.8887 36.7139 25.0343C36.2793 26.1799 36.0928 27.4047 36.1666 28.6277V39.6277C36.0928 40.8507 36.2793 42.0755 36.7139 43.2211C37.1485 44.3667 37.8211 45.4071 38.6875 46.2735C39.5539 47.1398 40.5943 47.8125 41.7399 48.2471C42.8855 48.6817 44.1102 48.8682 45.3333 48.7944V52.703C45.3332 53.035 45.4233 53.3607 45.5938 53.6454C45.7644 53.9301 46.0091 54.1632 46.3017 54.3198C46.5944 54.4764 46.924 54.5506 47.2556 54.5345C47.5871 54.5184 47.908 54.4126 48.1841 54.2284L56.3333 48.7944H63.6666C64.8896 48.8682 66.1144 48.6817 67.26 48.2471C68.4056 47.8125 69.446 47.1398 70.3124 46.2735C71.1787 45.4071 71.8514 44.3667 72.286 43.2211C72.7206 42.0755 72.9071 40.8507 72.8333 39.6277V28.6277C72.9071 27.4047 72.7206 26.1799 72.286 25.0343C71.8514 23.8887 71.1787 22.8483 70.3124 21.982C69.446 21.1156 68.4056 20.4429 67.26 20.0083C66.1144 19.5738 64.8896 19.3872 63.6666 19.461ZM54.5036 41.7672H54.4963C54.1319 41.7662 53.7829 41.6207 53.5257 41.3625C53.2686 41.1044 53.1245 40.7547 53.1249 40.3904C53.1254 40.026 53.2705 39.6768 53.5283 39.4193C53.7861 39.1618 54.1356 39.0172 54.4999 39.0172C54.8643 39.0172 55.2138 39.1618 55.4716 39.4193C55.7294 39.6768 55.8745 40.026 55.8749 40.3904C55.8754 40.7547 55.7313 41.1044 55.4742 41.3625C55.217 41.6207 54.868 41.7662 54.5036 41.7672ZM56.8081 34.1552C56.0986 34.6319 55.8731 34.9472 55.8731 35.4495V35.829C55.8731 36.1937 55.7282 36.5435 55.4704 36.8013C55.2125 37.0592 54.8628 37.204 54.4981 37.204C54.1334 37.204 53.7837 37.0592 53.5258 36.8013C53.268 36.5435 53.1231 36.1937 53.1231 35.829V35.4495C53.1433 34.7194 53.3518 34.0068 53.7282 33.3808C54.1046 32.7548 54.6363 32.2366 55.2718 31.8764C55.9483 31.418 56.1664 31.1155 56.1664 30.6334C56.1463 30.2049 55.962 29.8007 55.6517 29.5045C55.3413 29.2084 54.9289 29.0432 54.4999 29.0432C54.071 29.0432 53.6586 29.2084 53.3482 29.5045C53.0379 29.8007 52.8535 30.2049 52.8334 30.6334C52.8334 30.998 52.6886 31.3478 52.4307 31.6056C52.1729 31.8635 51.8231 32.0084 51.4584 32.0084C51.0938 32.0084 50.744 31.8635 50.4862 31.6056C50.2283 31.3478 50.0834 30.998 50.0834 30.6334C50.1166 29.4841 50.5964 28.393 51.421 27.5917C52.2457 26.7905 53.3502 26.3423 54.4999 26.3423C55.6497 26.3423 56.7542 26.7905 57.5789 27.5917C58.4035 28.393 58.8833 29.4841 58.9164 30.6334C58.8973 31.3521 58.6932 32.0537 58.3239 32.6706C57.9546 33.2875 57.4325 33.7988 56.8081 34.1552Z" fill="white"/>
</svg>
