<svg width="91" height="73" viewBox="0 0 91 73" fill="none" xmlns="http://www.w3.org/2000/svg">
<g clip-path="url(#clip0_807_22921)">
<path opacity="0.1" d="M63.6998 36.4994C63.6998 18.667 49.2834 4.21094 31.4998 4.21094C13.7162 4.21094 -0.700195 18.667 -0.700195 36.4994C-0.700195 54.3318 13.7162 68.7879 31.4998 68.7879C49.2834 68.7879 63.6998 54.3318 63.6998 36.4994Z" fill="white"/>
<path d="M88.7251 36.5C88.7251 17.6015 73.4468 2.28125 54.6001 2.28125C35.7534 2.28125 20.4751 17.6015 20.4751 36.5C20.4751 55.3985 35.7534 70.7188 54.6001 70.7188C73.4468 70.7188 88.7251 55.3985 88.7251 36.5Z" fill="#EB3609"/>
<path d="M87.5003 36.5009C87.5003 17.8932 72.4571 2.80859 53.9003 2.80859C35.3435 2.80859 20.3003 17.8932 20.3003 36.5009C20.3003 55.1087 35.3435 70.1932 53.9003 70.1932C72.4571 70.1932 87.5003 55.1087 87.5003 36.5009Z" stroke="white" stroke-width="4"/>
<path d="M54.5002 43.3327C45.3803 43.3327 43.7647 34.2436 43.4785 27.0346C43.3989 25.0293 43.3591 24.0267 44.1123 23.099C44.8655 22.1713 45.767 22.0192 47.57 21.715C49.3498 21.4147 51.6763 21.166 54.5002 21.166C57.3241 21.166 59.6506 21.4147 61.4304 21.715C63.2334 22.0192 64.1349 22.1713 64.8881 23.099C65.6413 24.0267 65.6015 25.0293 65.5219 27.0346C65.2357 34.2436 63.6201 43.3327 54.5002 43.3327Z" fill="white" stroke="white" stroke-width="1.5"/>
<path d="M65.5835 25.916L67.0855 26.4167C68.6531 26.9392 69.4369 27.2005 69.8852 27.8225C70.3335 28.4445 70.3334 29.2707 70.3334 30.9231L70.3334 31.0379C70.3334 32.4007 70.3333 33.0822 70.0053 33.6397C69.6772 34.1972 69.0816 34.5281 67.8902 35.19L63.2085 37.791" stroke="white" stroke-width="1.5"/>
<path d="M43.4164 25.916L41.9144 26.4167C40.3468 26.9392 39.563 27.2005 39.1147 27.8225C38.6664 28.4445 38.6665 29.2707 38.6665 30.9231L38.6665 31.0379C38.6665 32.4007 38.6666 33.0822 38.9946 33.6397C39.3227 34.1972 39.9183 34.5281 41.1097 35.19L45.7914 37.791" stroke="white" stroke-width="1.5"/>
<path d="M54.5 44.916V48.0827" stroke="white" stroke-width="1.5" stroke-linecap="round"/>
<path d="M60.0418 52.8333H48.9585L49.4956 50.1478C49.6436 49.4077 50.2934 48.875 51.0482 48.875H57.9521C58.7069 48.875 59.3567 49.4077 59.5047 50.1478L60.0418 52.8333Z" fill="white" stroke="white" stroke-width="1.5" stroke-linecap="round" stroke-linejoin="round"/>
<path d="M64 52.834H45" stroke="white" stroke-width="1.5" stroke-linecap="round"/>
</g>
<defs>
<clipPath id="clip0_807_22921">
<rect width="91" height="73" fill="white"/>
</clipPath>
</defs>
</svg>
