<svg width="96" height="64" viewBox="0 0 96 64" fill="none" xmlns="http://www.w3.org/2000/svg">
<g clip-path="url(#clip0_2183_14750)">
<g clip-path="url(#clip1_2183_14750)">
<g clip-path="url(#clip2_2183_14750)">
<path opacity="0.1" d="M68 4H28C12.536 4 0 16.536 0 32C0 47.464 12.536 60 28 60H68C83.464 60 96 47.464 96 32C96 16.536 83.464 4 68 4Z" fill="#27C840"/>
<path d="M78 32C78 15.4315 64.5685 2 48 2C31.4315 2 18 15.4315 18 32C18 48.5685 31.4315 62 48 62C64.5685 62 78 48.5685 78 32Z" stroke="white" stroke-width="4"/>
<path d="M78 32C78 15.4315 64.5685 2 48 2C31.4315 2 18 15.4315 18 32C18 48.5685 31.4315 62 48 62C64.5685 62 78 48.5685 78 32Z" fill="#27C840"/>
<path d="M53.6755 38.5872L49.7389 32.4664L46.2487 31.5312L39.7791 34.8637C37.9718 35.7874 36.9534 37.6817 37.1718 39.7004C37.3935 41.7061 38.8053 43.3404 40.75 43.8615L48.3357 45.8941C50.2934 46.4186 52.3203 45.7057 53.5152 44.0796C54.7136 42.4406 54.7789 40.2908 53.6755 38.5872ZM48.2254 40.5364L43.5374 39.2803C43.048 39.1491 42.7686 38.6463 42.8963 38.1698C43.024 37.6933 43.5302 37.401 44.0067 37.5287L48.6947 38.7849C49.1841 38.916 49.4635 39.4188 49.3358 39.8953C49.2081 40.3718 48.7019 40.6641 48.2254 40.5364Z" fill="white"/>
<path d="M58.8283 24.3014C58.6065 22.2956 57.1948 20.6612 55.25 20.1401L47.6514 18.1041C45.7067 17.583 43.6669 18.2926 42.472 19.9187C41.2865 21.5612 41.2212 23.7109 42.3245 25.4145L46.2612 31.5352L49.7514 32.4704L56.221 29.138C58.0154 28.2109 59.0337 26.3165 58.8283 24.3014ZM51.9899 26.4859L47.3019 25.2298C46.8125 25.0986 46.5331 24.5959 46.6608 24.1193C46.7885 23.6428 47.2947 23.3505 47.7713 23.4782L52.4592 24.7344C52.9486 24.8655 53.228 25.3683 53.1003 25.8448C52.9726 26.3213 52.4664 26.6136 51.9899 26.4859Z" fill="white"/>
</g>
</g>
</g>
<defs>
<clipPath id="clip0_2183_14750">
<rect width="96" height="64" rx="32" fill="white"/>
</clipPath>
<clipPath id="clip1_2183_14750">
<rect width="96" height="64" fill="white"/>
</clipPath>
<clipPath id="clip2_2183_14750">
<rect width="96" height="64" fill="white"/>
</clipPath>
</defs>
</svg>
