<svg width="87" height="70" viewBox="0 0 87 70" fill="none" xmlns="http://www.w3.org/2000/svg">
<g clip-path="url(#clip0_1969_3545)">
<path opacity="0.1" d="M60.9 35C60.9 18.0863 47.2671 4.375 30.45 4.375C13.6329 4.375 0 18.0863 0 35C0 51.9137 13.6329 65.625 30.45 65.625C47.2671 65.625 60.9 51.9137 60.9 35Z" fill="#6D61FF"/>
<path d="M84.825 35C84.825 16.8782 70.2182 2.1875 52.2 2.1875C34.1817 2.1875 19.575 16.8782 19.575 35C19.575 53.1218 34.1817 67.8125 52.2 67.8125C70.2182 67.8125 84.825 53.1218 84.825 35Z" fill="#6D61FF"/>
<path d="M84.825 35C84.825 16.8782 70.2182 2.1875 52.2 2.1875C34.1817 2.1875 19.575 16.8782 19.575 35C19.575 53.1218 34.1817 67.8125 52.2 67.8125C70.2182 67.8125 84.825 53.1218 84.825 35Z" stroke="white" stroke-width="4"/>
<path d="M73.3084 37.0656C73.3749 38.6532 72.8089 40.2022 71.7346 41.373C70.6604 42.5438 69.1656 43.2406 67.5782 43.3107C67.4854 43.315 67.3927 43.3171 67.3002 43.3171C66.8784 43.3168 66.4579 43.2712 66.0459 43.181C64.8234 45.0685 63.2204 46.6801 61.3394 47.9127C59.4585 49.1452 57.3409 49.9716 55.1223 50.339C54.8599 51.1099 54.3364 51.7649 53.6422 52.1908C52.9481 52.6167 52.127 52.7866 51.3208 52.6713C50.5147 52.556 49.7741 52.1627 49.2272 51.5593C48.6803 50.9559 48.3614 50.1804 48.3257 49.3668C48.2899 48.5532 48.5395 47.7527 49.0314 47.1036C49.5232 46.4546 50.2264 45.9978 51.0193 45.8121C51.8122 45.6265 52.6451 45.7238 53.3739 46.0871C54.1027 46.4504 54.6817 47.057 55.0108 47.8019C58.1343 47.2242 60.9561 45.5688 62.9843 43.1241C65.0125 40.6795 66.1186 37.6006 66.1097 34.4241C66.1097 26.9197 60.0045 20.8145 52.5001 20.8145C44.9956 20.8145 38.8904 26.9197 38.8904 34.4241C38.89 36.7446 39.483 39.0267 40.6132 41.0533C40.6515 41.1202 40.6802 41.1921 40.6986 41.267C40.8077 41.5704 40.7961 41.9042 40.666 42.1992C40.5359 42.4942 40.2974 42.728 39.9997 42.852C39.271 43.1587 38.4882 43.3167 37.6976 43.3166C37.6045 43.3166 37.5113 43.3144 37.4178 43.3101C35.8311 43.2392 34.3372 42.5419 33.2638 41.3712C32.1904 40.2005 31.625 38.6519 31.6917 37.065C31.7185 36.4322 31.7035 35.8676 31.6889 35.3216C31.6753 34.8075 31.6611 34.2759 31.6844 33.7212C31.7541 32.1717 32.4206 30.7093 33.5444 29.6403C34.6682 28.5712 36.162 27.9784 37.713 27.9861C40.2037 22.2876 45.8938 18.2949 52.5001 18.2949C59.1063 18.2949 64.7965 22.2876 67.2872 27.9862C68.8384 27.9774 70.3327 28.5696 71.4566 29.6387C72.5806 30.7078 73.2468 32.1706 73.3156 33.7202C73.339 34.2758 73.3249 34.8073 73.3111 35.3214C73.2967 35.8675 73.2817 36.4324 73.3084 37.0656ZM63.0657 34.4241C63.0651 36.0428 62.6927 37.6397 61.9773 39.0917C61.2619 40.5437 60.2226 41.812 58.9394 42.7987C57.6563 43.7855 56.1637 44.4644 54.5767 44.783C52.9897 45.1017 51.3508 45.0516 49.7862 44.6366L45.5096 47.1063C45.2938 47.231 45.0459 47.2888 44.7973 47.2725C44.5487 47.2562 44.3104 47.1666 44.1127 47.0149C43.915 46.8632 43.7668 46.6563 43.6867 46.4203C43.6066 46.1844 43.5983 45.93 43.6628 45.6893L44.7558 41.612C42.9458 39.6556 41.9386 37.0894 41.9348 34.4241C41.9348 28.5966 46.6741 23.856 52.5001 23.856C58.326 23.856 63.0657 28.5966 63.0657 34.4241ZM49.5627 34.4241C49.5627 34.09 49.43 33.7696 49.1937 33.5333C48.9575 33.2971 48.637 33.1644 48.3029 33.1644H48.3008C48.0518 33.1648 47.8085 33.2391 47.6016 33.3778C47.3947 33.5165 47.2336 33.7134 47.1386 33.9437C47.0437 34.1739 47.019 34.4271 47.0679 34.6713C47.1168 34.9155 47.237 35.1398 47.4132 35.3157C47.5895 35.4917 47.814 35.6114 48.0583 35.6598C48.3026 35.7083 48.5558 35.6832 48.7858 35.5878C49.0159 35.4923 49.2125 35.3309 49.3508 35.1238C49.4891 34.9166 49.563 34.6732 49.563 34.4241H49.5627ZM53.7601 34.4241C53.76 34.3829 53.7577 34.3417 53.7534 34.3007C53.7494 34.2595 53.7432 34.2186 53.735 34.178C53.7274 34.1377 53.7173 34.0978 53.7046 34.0588C53.693 34.0193 53.6787 33.9807 53.6636 33.9421C53.6485 33.9034 53.63 33.8673 53.6107 33.8312C53.5915 33.7949 53.5705 33.7596 53.5477 33.7254C53.5247 33.6908 53.5 33.6575 53.4737 33.6254C53.4478 33.5933 53.4201 33.5628 53.3906 33.5339C53.3621 33.5045 53.331 33.4768 53.2991 33.4499C53.2671 33.4247 53.2335 33.3995 53.1991 33.3768C53.1649 33.3541 53.1296 33.333 53.0933 33.3138C53.0571 33.2945 53.0194 33.2769 52.9815 33.2609C52.9437 33.2451 52.9051 33.2314 52.8657 33.2198C52.7872 33.1946 52.706 33.1782 52.6239 33.1711C52.5005 33.1592 52.376 33.1651 52.2543 33.1887C52.2138 33.197 52.1737 33.2074 52.1343 33.2198C52.0949 33.2313 52.0562 33.2451 52.0184 33.2609C51.9806 33.2769 51.9428 33.2945 51.9067 33.3138C51.8706 33.3332 51.8353 33.3542 51.8008 33.3768C51.7319 33.4226 51.6677 33.4752 51.6094 33.5339C51.5799 33.5628 51.5521 33.5933 51.5262 33.6254C51.5002 33.6575 51.4758 33.6908 51.4532 33.7254C51.4301 33.7595 51.4088 33.7948 51.3894 33.8312C51.37 33.8672 51.3526 33.9042 51.3372 33.9421C51.3213 33.9802 51.3073 34.0192 51.2952 34.0588C51.2835 34.0974 51.2735 34.1377 51.2651 34.178C51.2568 34.2186 51.2506 34.2595 51.2465 34.3007C51.2424 34.3418 51.2406 34.383 51.2406 34.4241C51.2406 34.4653 51.2424 34.5073 51.2465 34.5484C51.2506 34.5893 51.2568 34.6299 51.2651 34.6702C51.2735 34.7105 51.2835 34.7508 51.2952 34.7903C51.3073 34.8296 51.3213 34.8683 51.3372 34.9062C51.3526 34.9443 51.37 34.9816 51.3894 35.0179C51.4086 35.054 51.4305 35.0893 51.4532 35.1237C51.4758 35.158 51.5002 35.191 51.5262 35.2228C51.5523 35.255 51.5801 35.2858 51.6094 35.3152C51.6388 35.3438 51.669 35.3723 51.7018 35.3983C51.7334 35.4246 51.7664 35.449 51.8008 35.4714C51.8353 35.4941 51.8705 35.5159 51.9067 35.5352C51.9796 35.5733 52.0558 35.6047 52.1343 35.6293C52.1737 35.6411 52.214 35.6511 52.2543 35.6595C52.3353 35.6761 52.4177 35.6843 52.5004 35.6839C52.8341 35.683 53.154 35.5505 53.3906 35.3152C53.4487 35.2563 53.5012 35.1922 53.5477 35.1237C53.5704 35.0893 53.5914 35.054 53.6107 35.0179C53.63 34.9818 53.6476 34.944 53.6636 34.9062C53.6795 34.8684 53.693 34.8289 53.7046 34.7903C53.7172 34.7509 53.7273 34.7108 53.735 34.6702C53.7432 34.6299 53.7493 34.5893 53.7534 34.5484C53.7577 34.5071 53.7598 34.4655 53.7598 34.424L53.7601 34.4241ZM57.9593 34.4241C57.9593 34.09 57.8266 33.7696 57.5903 33.5333C57.3541 33.2971 57.0336 33.1644 56.6995 33.1644H56.6971C56.448 33.1648 56.2047 33.2391 55.9979 33.3778C55.791 33.5166 55.6299 33.7135 55.535 33.9437C55.44 34.1739 55.4154 34.4272 55.4643 34.6714C55.5131 34.9156 55.6333 35.1398 55.8096 35.3158C55.9859 35.4917 56.2104 35.6114 56.4547 35.6599C56.699 35.7083 56.9521 35.6832 57.1822 35.5878C57.4122 35.4923 57.6088 35.3309 57.7472 35.1238C57.8855 34.9166 57.9593 34.6732 57.9593 34.4241Z" fill="white"/>
</g>
<defs>
<clipPath id="clip0_1969_3545">
<rect width="87" height="70" fill="white"/>
</clipPath>
</defs>
</svg>
