<svg width="40" height="40" viewBox="0 0 40 40" fill="none" xmlns="http://www.w3.org/2000/svg">
<path d="M23.3979 22.7932C23.705 24.4503 25.1622 25.7145 26.905 25.7145C28.6478 25.7145 30.1049 24.4503 30.4121 22.7932C30.9192 22.636 31.2906 22.1646 31.2906 21.6075V20.0004H22.5194V21.6075C22.5194 22.1646 22.8908 22.636 23.3979 22.7932ZM20.9194 16.3719C21.5908 16.9433 22.0765 17.7075 22.3265 18.5718H31.4906C31.739 17.7075 32.2358 16.935 32.9192 16.3504C33.9447 15.4811 34.7686 14.3989 35.3335 13.179C35.8985 11.959 36.1909 10.6307 36.1905 9.28626C36.1905 6.6506 35.062 4.12921 33.0977 2.36496C32.1188 1.49323 30.9674 0.837301 29.7183 0.439815C28.4693 0.0423288 27.1505 -0.0878108 25.8479 0.0578586C21.5694 0.536422 18.1337 3.98636 17.6766 8.272C17.348 11.3577 18.5551 14.3862 20.9194 16.3719ZM27.4407 10.0005H26.3693C25.0907 10.0005 24.0479 8.9577 24.0479 7.67915C24.0479 6.45774 24.9979 5.47205 26.1907 5.37919V5.00063C26.1907 4.60778 26.5121 4.28635 26.905 4.28635C27.2978 4.28635 27.6193 4.60778 27.6193 5.00063V5.35776H29.0478C29.4407 5.35776 29.7621 5.67919 29.7621 6.07204C29.7621 6.46489 29.4407 6.78631 29.0478 6.78631H26.3693C26.1325 6.78631 25.9054 6.88038 25.738 7.04782C25.5705 7.21526 25.4764 7.44235 25.4764 7.67915C25.4764 7.91595 25.5705 8.14304 25.738 8.31048C25.9054 8.47792 26.1325 8.57199 26.3693 8.57199H27.4407C28.7192 8.57199 29.7621 9.61483 29.7621 10.8934C29.7621 12.1148 28.8121 13.1005 27.6193 13.1933V13.5719C27.6193 13.9648 27.2978 14.2862 26.905 14.2862C26.5121 14.2862 26.1907 13.9648 26.1907 13.5719V13.2148H24.7622C24.3693 13.2148 24.0479 12.8933 24.0479 12.5005C24.0479 12.1076 24.3693 11.7862 24.7622 11.7862H27.4407C27.6775 11.7862 27.9046 11.6922 28.072 11.5247C28.2395 11.3573 28.3335 11.1302 28.3335 10.8934C28.3335 10.6566 28.2395 10.4295 28.072 10.262C27.9046 10.0946 27.6775 10.0005 27.4407 10.0005ZM32.877 28.3716L27.6914 29.8788C27.67 30.143 27.6271 30.4002 27.5557 30.6573C27.5414 30.693 27.5343 30.7287 27.52 30.7645C27.3306 31.3584 27.0054 31.9 26.5702 32.3463C26.135 32.7927 25.6018 33.1315 25.0129 33.3358C24.6272 33.4858 24.17 33.5644 23.6986 33.5644H18.863C18.4701 33.5644 18.1487 33.243 18.1487 32.8501C18.1487 32.4501 18.4701 32.1359 18.863 32.1359H23.6986C23.9986 32.1359 24.2843 32.0859 24.5486 31.9859C24.9277 31.8537 25.2709 31.6352 25.5511 31.3476C25.8313 31.06 26.0407 30.7112 26.1629 30.3287V30.3216C26.2771 29.9359 26.32 29.5002 26.22 29.0359C25.97 27.8145 24.82 26.9859 23.5772 26.9859H18.7273C18.3559 26.9859 17.9844 26.8788 17.6702 26.6788L15.3845 25.2288C14.4133 24.6104 13.2852 24.2832 12.1338 24.286H4.04826C3.65541 24.286 3.33398 24.6074 3.33398 25.0003V34.9501C3.33398 35.3429 3.65541 35.6644 4.04826 35.6644H7.9339C8.16247 35.6644 8.39104 35.7286 8.58389 35.8429L13.5267 38.7215C14.9838 39.5714 16.6123 40 18.248 40C19.6123 40 20.9837 39.7 22.2622 39.1L34.7056 33.2001C35.2867 32.9289 35.7457 32.4505 35.9928 31.8587C36.2398 31.2668 36.2571 30.6041 36.0413 30.0002C35.8204 29.3768 35.3701 28.8612 34.782 28.5585C34.194 28.2559 33.5127 28.189 32.877 28.3716Z" fill="#EB3609"/>
</svg>
