<svg width="64" height="64" viewBox="0 0 64 64" fill="none" xmlns="http://www.w3.org/2000/svg">
<g clip-path="url(#clip0_1873_5477)">
<path d="M55.0464 11.0215H3.9435C1.769 11.0215 0 12.7906 0 14.9651V49.0337C0 51.2082 1.769 52.9772 3.9435 52.9772H4.94575C5.19253 52.9744 5.42824 52.8744 5.60174 52.6988C5.77524 52.5233 5.87255 52.2865 5.87255 52.0397C5.87255 51.7929 5.77524 51.556 5.60174 51.3805C5.42824 51.205 5.19253 51.105 4.94575 51.1021H3.9435C2.80288 51.1021 1.875 50.1742 1.875 49.0336V14.9651C1.875 13.8245 2.80288 12.8966 3.9435 12.8966H55.0464C55.295 12.8966 55.5335 12.7978 55.7093 12.622C55.8851 12.4462 55.9839 12.2077 55.9839 11.9591C55.9839 11.836 55.9597 11.7141 55.9125 11.6003C55.8654 11.4865 55.7964 11.3832 55.7093 11.2961C55.6223 11.209 55.5189 11.14 55.4052 11.0929C55.2914 11.0457 55.1695 11.0215 55.0464 11.0215ZM60.0565 11.0215H59.0542C58.8056 11.0215 58.5672 11.1203 58.3913 11.2961C58.2155 11.4719 58.1167 11.7103 58.1167 11.959C58.1167 12.2076 58.2155 12.4461 58.3913 12.6219C58.5672 12.7977 58.8056 12.8965 59.0542 12.8965H60.0565C61.1971 12.8965 62.125 13.8244 62.125 14.965V49.0336C62.125 50.1742 61.1971 51.1021 60.0565 51.1021H8.95362C8.70498 51.1021 8.46653 51.2009 8.29071 51.3767C8.1149 51.5525 8.01612 51.791 8.01612 52.0396C8.01612 52.2882 8.1149 52.5267 8.29071 52.7025C8.46653 52.8783 8.70498 52.9771 8.95362 52.9771H60.0565C62.231 52.9771 64 51.2081 64 49.0336V14.9651C64 12.7906 62.231 11.0215 60.0565 11.0215Z" fill="#EB3609"/>
<path d="M29.996 36.0715H20.9779C20.7293 36.0715 20.4908 36.1703 20.315 36.3461C20.1392 36.5219 20.0404 36.7604 20.0404 37.009C20.0404 37.2577 20.1392 37.4961 20.315 37.6719C20.4908 37.8478 20.7293 37.9465 20.9779 37.9465H29.996C30.2447 37.9465 30.4831 37.8478 30.6589 37.6719C30.8348 37.4961 30.9335 37.2577 30.9335 37.009C30.9335 36.7604 30.8348 36.5219 30.6589 36.3461C30.4831 36.1703 30.2447 36.0715 29.996 36.0715ZM16.9699 36.0715H7.95166C7.70302 36.0715 7.46456 36.1703 7.28875 36.3461C7.11293 36.5219 7.01416 36.7604 7.01416 37.009C7.01416 37.2577 7.11293 37.4961 7.28875 37.6719C7.46456 37.8478 7.70302 37.9465 7.95166 37.9465H16.9699C17.2186 37.9465 17.457 37.8478 17.6328 37.6719C17.8086 37.4961 17.9074 37.2577 17.9074 37.009C17.9074 36.7604 17.8086 36.5219 17.6328 36.3461C17.457 36.1703 17.2186 36.0715 16.9699 36.0715ZM29.996 42.0835H7.95166C7.70302 42.0835 7.46456 42.1823 7.28875 42.3581C7.11293 42.5339 7.01416 42.7724 7.01416 43.021C7.01416 43.2697 7.11293 43.5081 7.28875 43.6839C7.46456 43.8598 7.70302 43.9585 7.95166 43.9585H29.996C30.2447 43.9585 30.4831 43.8598 30.6589 43.6839C30.8348 43.5081 30.9335 43.2697 30.9335 43.021C30.9335 42.7724 30.8348 42.5339 30.6589 42.3581C30.4831 42.1823 30.2447 42.0835 29.996 42.0835ZM56.0485 36.0715H47.0303C46.7816 36.0715 46.5432 36.1703 46.3674 36.3461C46.1916 36.5219 46.0928 36.7604 46.0928 37.009C46.0928 37.2577 46.1916 37.4961 46.3674 37.6719C46.5432 37.8478 46.7816 37.9465 47.0303 37.9465H56.0485C56.2972 37.9465 56.5356 37.8478 56.7114 37.6719C56.8873 37.4961 56.986 37.2577 56.986 37.009C56.986 36.7604 56.8873 36.5219 56.7114 36.3461C56.5356 36.1703 56.2972 36.0715 56.0485 36.0715ZM43.0222 36.0715H34.004C33.7554 36.0715 33.5169 36.1703 33.3411 36.3461C33.1653 36.5219 33.0665 36.7604 33.0665 37.009C33.0665 37.2577 33.1653 37.4961 33.3411 37.6719C33.5169 37.8478 33.7554 37.9465 34.004 37.9465H43.0222C43.2708 37.9465 43.5093 37.8478 43.6851 37.6719C43.8609 37.4961 43.9597 37.2577 43.9597 37.009C43.9597 36.7604 43.8609 36.5219 43.6851 36.3461C43.5093 36.1703 43.2708 36.0715 43.0222 36.0715ZM43.0222 42.0835H34.004C33.7554 42.0835 33.5169 42.1823 33.3411 42.3581C33.1653 42.5339 33.0665 42.7724 33.0665 43.021C33.0665 43.2697 33.1653 43.5081 33.3411 43.6839C33.5169 43.8598 33.7554 43.9585 34.004 43.9585H43.0222C43.2708 43.9585 43.5093 43.8598 43.6851 43.6839C43.8609 43.5081 43.9597 43.2697 43.9597 43.021C43.9597 42.7724 43.8609 42.5339 43.6851 42.3581C43.5093 42.1823 43.2708 42.0835 43.0222 42.0835ZM17.9073 25.9868C17.9073 24.3648 16.5877 23.0453 14.9657 23.0453H9.95566C8.33366 23.0453 7.01416 24.3649 7.01416 25.9868V28.9928C7.01416 30.6148 8.33378 31.9343 9.95566 31.9343H14.9658C16.5878 31.9343 17.9074 30.6148 17.9074 28.9928V25.9868H17.9073ZM11.0222 30.0594H9.95566C9.36753 30.0593 8.88916 29.5808 8.88916 28.9928V25.9868C8.88916 25.3987 9.36766 24.9203 9.95566 24.9203H11.0222V30.0594ZM16.0323 28.9928C16.0323 29.5809 15.5538 30.0593 14.9657 30.0593H12.8972V24.9201H14.9657C15.5538 24.9201 16.0323 25.3985 16.0323 25.9866V28.9928ZM48.1953 22.3143C48.1224 22.2142 48.0304 22.1295 47.9246 22.0652C47.8188 22.0008 47.7013 21.9581 47.5789 21.9394C47.4564 21.9208 47.3315 21.9265 47.2114 21.9564C47.0912 21.9862 46.9781 22.0396 46.8787 22.1134C46.7793 22.1872 46.6954 22.28 46.6321 22.3864C46.5687 22.4928 46.527 22.6106 46.5095 22.7332C46.4919 22.8558 46.4988 22.9806 46.5297 23.1005C46.5607 23.2204 46.6151 23.333 46.6898 23.4318C47.2052 24.1261 47.2313 25.0777 46.7547 25.7994C46.6177 26.0069 46.5687 26.2603 46.6186 26.5039C46.6685 26.7475 46.813 26.9613 47.0205 27.0983C47.1734 27.1996 47.3528 27.2536 47.5362 27.2535C47.6914 27.2537 47.8442 27.2154 47.9809 27.1419C48.1176 27.0684 48.234 26.9621 48.3194 26.8325C49.2289 25.4553 49.179 23.6395 48.1953 22.3143ZM51.4678 19.9983C51.3218 19.797 51.1018 19.662 50.8562 19.623C50.6107 19.5839 50.3597 19.644 50.1584 19.79C49.9572 19.936 49.8222 20.156 49.7831 20.4016C49.744 20.6471 49.8041 20.8982 49.9502 21.0994C51.4757 23.2017 51.4938 26.0395 49.9953 28.1613C49.8962 28.3016 49.8376 28.4664 49.8259 28.6378C49.8141 28.8092 49.8496 28.9805 49.9286 29.133C50.0075 29.2856 50.1269 29.4135 50.2735 29.5029C50.4202 29.5922 50.5886 29.6396 50.7604 29.6398C50.9106 29.64 51.0587 29.604 51.1921 29.535C51.3255 29.4659 51.4403 29.3658 51.5269 29.243C53.4885 26.4656 53.4648 22.7505 51.4678 19.9983Z" fill="#EB3609"/>
<path d="M54.759 17.71C54.6873 17.6099 54.5966 17.5249 54.4921 17.4599C54.3876 17.3948 54.2712 17.351 54.1498 17.3309C54.0283 17.3108 53.9041 17.3149 53.7842 17.3428C53.6643 17.3707 53.551 17.422 53.451 17.4937C53.3509 17.5654 53.2659 17.6561 53.2008 17.7606C53.1358 17.8651 53.092 17.9814 53.0719 18.1029C53.0518 18.2244 53.0558 18.3486 53.0838 18.4685C53.1117 18.5884 53.163 18.7016 53.2346 18.8017C55.7238 22.2779 55.7426 26.9622 53.2816 30.4585C53.1411 30.6619 53.0866 30.9126 53.1299 31.156C53.1733 31.3994 53.3111 31.6158 53.5133 31.7581C53.7155 31.9004 53.9657 31.9571 54.2095 31.9158C54.4533 31.8745 54.6709 31.7386 54.8149 31.5376C57.7343 27.3902 57.7118 21.8334 54.759 17.71Z" fill="#EB3609"/>
</g>
<defs>
<clipPath id="clip0_1873_5477">
<rect width="64" height="64" fill="white"/>
</clipPath>
</defs>
</svg>
