<svg width="40" height="40" viewBox="0 0 40 40" fill="none" xmlns="http://www.w3.org/2000/svg">
<path fill-rule="evenodd" clip-rule="evenodd" d="M20.4559 5.39259C17.5474 5.29499 14.6815 6.112 12.2617 7.72859C9.5409 9.54759 7.54832 12.2674 6.63413 15.4099C6.38657 15.3797 6.09013 15.393 5.73813 15.4926C4.4239 15.8659 3.4359 16.9424 2.99146 17.8908C2.41457 19.1268 2.17146 20.7619 2.4279 22.449C2.68257 24.1313 3.39324 25.5179 4.28213 26.3788C5.17368 27.2401 6.18035 27.5201 7.18035 27.3099C8.66924 26.9921 9.40746 26.7544 9.19901 25.3677L8.19013 18.6433C8.29259 16.8131 8.81916 15.0318 9.72825 13.4401C10.6373 11.8484 11.9041 10.4898 13.4283 9.47171C15.4826 8.09741 17.9161 7.40183 20.3863 7.48283C22.8565 7.56383 25.2392 8.41734 27.199 9.92326C28.5521 10.9607 29.6648 12.2785 30.4607 13.7863C31.2566 15.2942 31.7169 16.9564 31.8101 18.6588L31.1043 23.3624C30.3386 25.4616 28.9934 27.3006 27.2247 28.6663C25.4561 30.0319 23.3365 30.8681 21.1119 31.0779H18.1048C17.9208 31.0775 17.7385 31.1134 17.5684 31.1836C17.3983 31.2538 17.2438 31.3569 17.1136 31.487C16.9835 31.6171 16.8803 31.7716 16.81 31.9416C16.7397 32.1117 16.7036 32.2939 16.7039 32.4779V33.2166C16.7036 33.4006 16.7395 33.5829 16.8098 33.753C16.8801 33.9231 16.9833 34.0777 17.1135 34.2078C17.2436 34.3379 17.3982 34.441 17.5683 34.5113C17.7384 34.5815 17.9207 34.6174 18.1048 34.617H21.8963C22.0802 34.6173 22.2623 34.5813 22.4321 34.511C22.602 34.4407 22.7563 34.3376 22.8862 34.2075C23.0161 34.0774 23.1189 33.9229 23.189 33.753C23.259 33.583 23.2947 33.4009 23.2941 33.217V32.8304C26.7007 31.9963 29.6684 29.9104 31.607 26.9877L32.8217 27.3099C33.8101 27.5664 34.8288 27.2397 35.7199 26.3788C36.6088 25.5175 37.319 24.1313 37.5741 22.449C37.8319 20.7615 37.5812 19.1295 37.0115 17.8908C36.4395 16.6521 35.5875 15.8655 34.6039 15.5833C34.1919 15.4646 33.7448 15.421 33.3612 15.4099C32.5357 12.5677 30.8245 10.0632 28.4768 8.26104C26.169 6.48942 23.3638 5.48619 20.4559 5.39259Z" fill="#EB3609"/>
<path fill-rule="evenodd" clip-rule="evenodd" d="M24.8944 17.4898C25.376 17.4904 25.8378 17.682 26.1783 18.0226C26.5188 18.3633 26.7104 18.8251 26.7108 19.3067C26.71 19.7883 26.5183 20.25 26.1778 20.5905C25.8372 20.9311 25.3755 21.1228 24.8939 21.1236C24.4118 21.1237 23.9493 20.9324 23.6081 20.5917C23.2669 20.2511 23.075 19.7889 23.0744 19.3067C23.0745 19.0679 23.1217 18.8314 23.2132 18.6109C23.3047 18.3903 23.4387 18.1899 23.6077 18.0211C23.7767 17.8524 23.9772 17.7185 24.1979 17.6273C24.4186 17.5361 24.6551 17.4892 24.8939 17.4894L24.8944 17.4898ZM20.001 17.4898C20.3603 17.49 20.7115 17.5967 21.0102 17.7964C21.3088 17.9961 21.5416 18.2799 21.679 18.6119C21.8163 18.9439 21.8522 19.3092 21.7821 19.6615C21.7119 20.0139 21.5388 20.3376 21.2847 20.5916C21.0306 20.8456 20.7069 21.0186 20.3546 21.0887C20.0022 21.1588 19.6369 21.1228 19.305 20.9853C18.973 20.8479 18.6893 20.6151 18.4896 20.3163C18.29 20.0176 18.1834 19.6664 18.1833 19.3071C18.183 19.0684 18.2299 18.8319 18.3212 18.6112C18.4124 18.3906 18.5463 18.1901 18.7152 18.0213C18.884 17.8524 19.0845 17.7185 19.3051 17.6273C19.5258 17.536 19.7623 17.4896 20.001 17.4898ZM15.109 17.4898C15.351 17.4845 15.5916 17.5275 15.8167 17.6164C16.0419 17.7053 16.247 17.8383 16.42 18.0075C16.593 18.1768 16.7305 18.3789 16.8244 18.602C16.9182 18.8251 16.9666 19.0647 16.9666 19.3067C16.9666 19.5487 16.9182 19.7883 16.8244 20.0114C16.7305 20.2345 16.593 20.4366 16.42 20.6059C16.247 20.7751 16.0419 20.9081 15.8167 20.997C15.5916 21.0859 15.351 21.1289 15.109 21.1236C14.632 21.1161 14.1771 20.9214 13.8424 20.5814C13.5077 20.2415 13.3201 19.7835 13.3201 19.3065C13.3201 18.8294 13.5077 18.3715 13.8424 18.0315C14.1771 17.6916 14.632 17.4973 15.109 17.4898ZM20.001 9.68359C14.6722 9.68359 10.3779 13.8365 10.3779 19.3063C10.3779 21.9334 11.3713 24.2551 12.9895 25.9587L12.4153 28.5329C12.2259 29.38 12.8135 29.9498 13.5753 29.5258L16.0886 28.1236C17.3235 28.6583 18.6554 28.9327 20.001 28.9298C25.3317 28.9298 29.6233 24.7796 29.6233 19.3076C29.6233 13.8374 25.3317 9.68448 20.001 9.68448V9.68359Z" fill="#EB3609"/>
</svg>
