<svg width="36" height="36" viewBox="0 0 36 36" fill="none" xmlns="http://www.w3.org/2000/svg">
<path d="M3.17969 32.2503C3.17964 32.6246 3.25333 32.9952 3.39654 33.341C3.53976 33.6868 3.7497 34.001 4.01436 34.2657C4.27903 34.5304 4.59324 34.7403 4.93906 34.8835C5.28487 35.0268 5.65551 35.1004 6.02981 35.1004H29.9698C30.3441 35.1004 30.7147 35.0268 31.0606 34.8835C31.4064 34.7403 31.7206 34.5304 31.9853 34.2657C32.2499 34.001 32.4599 33.6868 32.6031 33.341C32.7463 32.9952 32.82 32.6246 32.8199 32.2503V9.58827C32.8199 8.83227 32.52 8.10759 31.9854 7.57407L26.1462 1.73487C25.8819 1.47018 25.5679 1.26023 25.2223 1.11704C24.8766 0.973847 24.5062 0.900227 24.132 0.900391H6.02981C5.27391 0.900391 4.54897 1.20067 4.01447 1.73517C3.47997 2.26967 3.17969 2.99461 3.17969 3.75051V32.2503ZM11.1598 10.0203H24.8398C25.1372 10.0277 25.4199 10.1511 25.6277 10.3641C25.8354 10.5771 25.9516 10.8629 25.9516 11.1604C25.9516 11.4579 25.8354 11.7436 25.6277 11.9566C25.4199 12.1696 25.1372 12.293 24.8398 12.3005H11.1598C10.8624 12.293 10.5797 12.1696 10.372 11.9566C10.1642 11.7436 10.048 11.4579 10.048 11.1604C10.048 10.8629 10.1642 10.5771 10.372 10.3641C10.5797 10.1511 10.8624 10.0277 11.1598 10.0203ZM11.1598 16.8603H24.8398C25.1372 16.8677 25.4199 16.9911 25.6277 17.2041C25.8354 17.4171 25.9516 17.7029 25.9516 18.0004C25.9516 18.2979 25.8354 18.5836 25.6277 18.7966C25.4199 19.0096 25.1372 19.133 24.8398 19.1405H11.1598C10.8624 19.133 10.5797 19.0096 10.372 18.7966C10.1642 18.5836 10.048 18.2979 10.048 18.0004C10.048 17.7029 10.1642 17.4171 10.372 17.2041C10.5797 16.9911 10.8624 16.8677 11.1598 16.8603ZM11.1598 23.7003H24.8398C25.1372 23.7077 25.4199 23.8311 25.6277 24.0441C25.8354 24.2571 25.9516 24.5429 25.9516 24.8404C25.9516 25.1379 25.8354 25.4236 25.6277 25.6366C25.4199 25.8496 25.1372 25.973 24.8398 25.9805H11.1598C10.8624 25.973 10.5797 25.8496 10.372 25.6366C10.1642 25.4236 10.048 25.1379 10.048 24.8404C10.048 24.5429 10.1642 24.2571 10.372 24.0441C10.5797 23.8311 10.8624 23.7077 11.1598 23.7003Z" fill="#EB3609"/>
</svg>
