<svg width="64" height="64" viewBox="0 0 64 64" fill="none" xmlns="http://www.w3.org/2000/svg">
<path d="M16.4645 21.953C16.4645 21.7213 16.5565 21.4992 16.7203 21.3353C16.8842 21.1715 17.1063 21.0795 17.338 21.0795H35.4269C35.6585 21.0795 35.8807 21.1715 36.0445 21.3353C36.2083 21.4992 36.3004 21.7213 36.3004 21.953C36.3004 22.1847 36.2083 22.4068 36.0445 22.5707C35.8807 22.7345 35.6585 22.8265 35.4269 22.8265H17.338C17.2233 22.8265 17.1097 22.8039 17.0037 22.76C16.8977 22.7162 16.8014 22.6518 16.7203 22.5707C16.6392 22.4896 16.5748 22.3933 16.531 22.2873C16.4871 22.1813 16.4645 22.0677 16.4645 21.953ZM17.338 28.5802H35.4269C35.6585 28.5802 35.8807 28.4882 36.0445 28.3244C36.2083 28.1606 36.3004 27.9384 36.3004 27.7068C36.3004 27.4751 36.2083 27.2529 36.0445 27.0891C35.8807 26.9253 35.6585 26.8333 35.4269 26.8333H17.338C17.1063 26.8333 16.8842 26.9253 16.7203 27.0891C16.5565 27.2529 16.4645 27.4751 16.4645 27.7068C16.4645 27.9384 16.5565 28.1606 16.7203 28.3244C16.8842 28.4882 17.1063 28.5802 17.338 28.5802ZM43.405 33.4605C43.405 33.2288 43.313 33.0067 43.1492 32.8428C42.9853 32.679 42.7632 32.587 42.5315 32.587H17.338C17.1063 32.587 16.8842 32.679 16.7203 32.8428C16.5565 33.0067 16.4645 33.2288 16.4645 33.4605C16.4645 33.6922 16.5565 33.9143 16.7203 34.0782C16.8842 34.242 17.1063 34.334 17.338 34.334H42.5315C42.6462 34.334 42.7598 34.3114 42.8658 34.2675C42.9718 34.2237 43.0681 34.1593 43.1492 34.0782C43.2303 33.9971 43.2946 33.9008 43.3385 33.7948C43.3824 33.6888 43.405 33.5752 43.405 33.4605ZM49.6971 25.0164L56.4074 29.6659C56.5234 29.7463 56.6182 29.8535 56.6837 29.9786C56.7491 30.1036 56.7834 30.2426 56.7834 30.3838C56.7834 30.3946 56.7819 30.4051 56.7814 30.4159C56.7819 30.4287 56.7834 30.4415 56.7834 30.4545V58.3534C56.7834 61.4325 54.2769 63.9375 51.1957 63.9375H8.67375C5.59275 63.9375 3.08612 61.4325 3.08612 58.3534V30.4121C3.08612 30.4075 3.08675 30.4031 3.08675 30.3986C3.08675 30.3949 3.08612 30.3913 3.08612 30.3874C3.0861 30.2463 3.12029 30.1072 3.18575 29.9822C3.25121 29.8572 3.346 29.7499 3.462 29.6695L11.0112 24.436V15.9375C11.0112 14.011 12.5786 12.4435 14.5052 12.4435H35.8952C35.9659 5.60462 41.5502 0.0625 48.4055 0.0625C55.3026 0.0625 60.9139 5.67537 60.9139 12.5744C60.9137 19.0355 55.9896 24.368 49.6971 25.0164ZM5.493 30.3873L11.0114 34.2121V26.5618L5.493 30.3873ZM51.1957 62.1904C51.6292 62.1904 52.0456 62.1172 52.4346 61.9844L31.7505 44.8522C30.8436 44.1024 28.9285 44.159 27.9566 44.9651L7.434 61.9841C7.83305 62.1208 8.25195 62.1905 8.67375 62.1905L51.1957 62.1904ZM55.0364 58.3534V32.0524L48.5429 36.5546C48.5056 36.5854 48.4658 36.613 48.4239 36.6371L37.3674 44.3031C37.2731 44.3686 37.1669 44.4148 37.0548 44.4392C36.9427 44.4636 36.8269 44.4656 36.714 44.4451C36.6011 44.4247 36.4933 44.3822 36.3969 44.32C36.3004 44.2579 36.2172 44.1774 36.1519 44.083C36.0199 43.8926 35.9689 43.6576 36.0102 43.4297C36.0515 43.2017 36.1816 42.9995 36.372 42.8675L47.1111 35.4215V25.0152C45.9579 24.8985 44.8269 24.6195 43.7516 24.1865L39.1914 26.7364C39.0443 26.8185 38.8766 26.8564 38.7085 26.8455C38.5404 26.8346 38.379 26.7753 38.2439 26.6747C38.1087 26.5742 38.0055 26.4367 37.9466 26.2788C37.8878 26.121 37.8759 25.9495 37.9122 25.785L39.0094 20.8346C37.3547 18.954 36.3166 16.6494 35.9989 14.1906H14.5051C13.5417 14.1906 12.7581 14.9742 12.7581 15.9376V35.4231L23.4831 42.8568C23.6362 42.9628 23.7514 43.115 23.8118 43.2911C23.8723 43.4673 23.8749 43.6581 23.8192 43.8358C23.7636 44.0136 23.6525 44.1688 23.5024 44.279C23.3523 44.3892 23.1708 44.4485 22.9846 44.4482C22.807 44.4483 22.6336 44.394 22.4877 44.2926L11.4255 36.625C11.3998 36.6091 11.3749 36.5919 11.351 36.5734L4.83325 32.0558V58.3535C4.83325 59.376 5.23637 60.3056 5.89125 60.994L26.8416 43.6204C28.4511 42.2856 31.3217 42.2313 32.8644 43.5064L53.9781 60.9944C54.633 60.3057 55.0364 59.376 55.0364 58.3534ZM54.3765 30.3841L48.8581 26.5605V34.2103L54.3765 30.3841ZM59.1669 12.5744C59.1669 6.63863 54.3394 1.8095 48.4055 1.8095C42.4697 1.8095 37.6406 6.63863 37.6406 12.5744C37.6406 15.3395 38.6897 17.9695 40.5946 19.98C40.6929 20.0837 40.7642 20.2099 40.8024 20.3476C40.8405 20.4853 40.8443 20.6303 40.8134 20.7698L40.0396 24.2605L43.2722 22.453C43.3908 22.3868 43.523 22.3491 43.6586 22.3429C43.7943 22.3367 43.9294 22.3621 44.0535 22.4172C45.4239 23.0266 46.8881 23.3356 48.4055 23.3356C54.3394 23.3358 59.1669 18.5081 59.1669 12.5744ZM56.6807 12.5744C56.6807 17.1374 52.9685 20.8496 48.4055 20.8496C46.1612 20.8496 44.124 19.951 42.6312 18.4965C42.6029 18.4746 42.5759 18.451 42.5504 18.4259C42.5252 18.4004 42.5016 18.3734 42.4797 18.3451C41.0252 16.8531 40.1266 14.8173 40.1266 12.5744C40.1266 8.00938 43.8405 4.2955 48.4054 4.2955C50.6479 4.2955 52.6837 5.19388 54.1756 6.64813C54.2037 6.67 54.2311 6.69325 54.257 6.71912C54.2829 6.745 54.3061 6.77238 54.328 6.8005C55.7822 8.29325 56.6807 10.3304 56.6807 12.5744ZM41.8737 12.5744C41.8737 14.0598 42.3736 15.43 43.2127 16.5282L52.3594 7.38163C51.2611 6.5425 49.8909 6.04262 48.4055 6.04262C44.8039 6.04262 41.8737 8.97275 41.8737 12.5744ZM54.9337 12.5744C54.9337 11.0876 54.4337 9.71612 53.5945 8.61712L44.4482 17.7634C45.5472 18.6026 46.9187 19.1026 48.4055 19.1026C52.0051 19.1026 54.9337 16.1741 54.9337 12.5744Z" fill="#EB3609"/>
</svg>
