<svg width="49" height="39" viewBox="0 0 49 39" fill="none" xmlns="http://www.w3.org/2000/svg">
<path d="M0 17.0625C0 9.01916 0 4.99749 2.42735 2.49875C4.85471 0 8.76147 0 16.575 0H24.8625C32.676 0 36.5828 0 39.0101 2.49875C41.4375 4.99749 41.4375 9.01916 41.4375 17.0625C41.4375 25.1058 41.4375 29.1275 39.0101 31.6263C36.5828 34.125 32.676 34.125 24.8625 34.125H16.575C8.76147 34.125 4.85471 34.125 2.42735 31.6263C0 29.1275 0 25.1058 0 17.0625Z" fill="#132436"/>
<path d="M8.23145 7.98047L12.7121 11.7173C16.5238 14.8964 18.4297 16.4859 20.6839 16.4859C22.9382 16.4859 24.844 14.8964 28.6558 11.7173L33.1364 7.98047" stroke="white" stroke-width="1.5" stroke-linecap="round"/>
<path d="M37.7812 39C43.8391 39 48.75 34.0891 48.75 28.0312C48.75 21.9734 43.8391 17.0625 37.7812 17.0625C31.7234 17.0625 26.8125 21.9734 26.8125 28.0312C26.8125 34.0891 31.7234 39 37.7812 39Z" fill="#27C840"/>
<path d="M34.726 28.3092C34.2862 27.8057 33.5226 27.7513 33.0167 28.1887C32.5132 28.6283 32.4588 29.3919 32.8962 29.8978L34.1941 31.3896C35.4376 32.8223 37.6763 32.7701 38.8513 31.2809L43.2344 25.737C43.648 25.2145 43.5582 24.4533 43.0334 24.0373C42.5109 23.6235 41.7497 23.7133 41.3336 24.2381L36.953 29.7795C36.7189 30.0775 36.2697 30.0894 36.0215 29.8032L34.726 28.3092Z" fill="white"/>
</svg>
