<svg width="75" height="60" viewBox="0 0 75 60" fill="none" xmlns="http://www.w3.org/2000/svg">
<g clip-path="url(#clip0_1402_891)">
<path opacity="0.1" d="M52.4998 29.9994C52.4998 15.3426 40.6181 3.46094 25.9613 3.46094C11.3045 3.46094 -0.577148 15.3426 -0.577148 29.9994C-0.577148 44.6562 11.3045 56.5379 25.9613 56.5379C40.6181 56.5379 52.4998 44.6562 52.4998 29.9994Z" fill="#27C840"/>
<path d="M73.125 30C73.125 14.467 60.533 1.875 45 1.875C29.467 1.875 16.875 14.467 16.875 30C16.875 45.533 29.467 58.125 45 58.125C60.533 58.125 73.125 45.533 73.125 30Z" fill="#27C840"/>
<path d="M72.1156 30.0009C72.1156 14.7069 59.7173 2.30859 44.4233 2.30859C29.1292 2.30859 16.731 14.7069 16.731 30.0009C16.731 45.2949 29.1292 57.6932 44.4233 57.6932C59.7173 57.6932 72.1156 45.2949 72.1156 30.0009Z" stroke="white" stroke-width="4"/>
<g clip-path="url(#clip1_1402_891)">
<path d="M58.0667 41.1992V27.6332C58.0654 27.5121 58.0483 27.3918 58.0158 27.2752L48.3885 34.8992L57.7116 42.2856C57.9417 41.97 58.066 41.5897 58.0667 41.1992ZM55.7334 27.8917L57.4885 26.502L55.7334 25.1122V27.8917ZM56.2 43.0658C56.4676 43.0649 56.7318 43.0058 56.9742 42.8927L45.7322 33.9864C45.5227 33.8235 45.2649 33.7351 44.9996 33.7351C44.7342 33.7351 44.4764 33.8235 44.2669 33.9864L33.0258 42.8927C33.2683 43.0058 33.5325 43.0649 33.8 43.0658H56.2ZM45.7322 17.185C45.5228 17.022 45.2651 16.9336 44.9998 16.9336C44.7345 16.9336 44.4767 17.022 44.2674 17.185L42.2327 18.7992H47.7674L45.7322 17.185ZM31.9333 27.6332V41.1992C31.934 41.5897 32.0584 41.97 32.2885 42.2856L41.6116 34.8992L31.9856 27.2715C31.9524 27.3892 31.9349 27.5108 31.9333 27.6332Z" fill="white"/>
<path d="M35.2 20.1991V28.6271L42.3633 34.3036L43.6877 33.2546C44.061 32.9588 44.5232 32.7978 44.9995 32.7978C45.4758 32.7978 45.938 32.9588 46.3113 33.2546L47.6366 34.3046L54.8 28.6308V20.1991C54.8 20.0753 54.7508 19.9566 54.6633 19.8691C54.5758 19.7816 54.4571 19.7324 54.3333 19.7324H35.6666C35.5429 19.7324 35.4242 19.7816 35.3367 19.8691C35.2491 19.9566 35.2 20.0753 35.2 20.1991ZM49.2 31.3991H40.8C40.6762 31.3991 40.5575 31.3499 40.47 31.2624C40.3825 31.1749 40.3333 31.0562 40.3333 30.9324C40.3333 30.8087 40.3825 30.69 40.47 30.6024C40.5575 30.5149 40.6762 30.4658 40.8 30.4658H49.2C49.3237 30.4658 49.4424 30.5149 49.53 30.6024C49.6175 30.69 49.6666 30.8087 49.6666 30.9324C49.6666 31.0562 49.6175 31.1749 49.53 31.2624C49.4424 31.3499 49.3237 31.3991 49.2 31.3991ZM37.5333 22.0658H52.4666C52.5904 22.0658 52.7091 22.1149 52.7966 22.2024C52.8841 22.29 52.9333 22.4087 52.9333 22.5324C52.9333 22.6562 52.8841 22.7749 52.7966 22.8624C52.7091 22.9499 52.5904 22.9991 52.4666 22.9991H37.5333C37.4095 22.9991 37.2908 22.9499 37.2033 22.8624C37.1158 22.7749 37.0666 22.6562 37.0666 22.5324C37.0666 22.4087 37.1158 22.29 37.2033 22.2024C37.2908 22.1149 37.4095 22.0658 37.5333 22.0658ZM37.5333 24.8658H52.4666C52.5904 24.8658 52.7091 24.9149 52.7966 25.0024C52.8841 25.09 52.9333 25.2087 52.9333 25.3324C52.9333 25.4562 52.8841 25.5749 52.7966 25.6624C52.7091 25.7499 52.5904 25.7991 52.4666 25.7991H37.5333C37.4095 25.7991 37.2908 25.7499 37.2033 25.6624C37.1158 25.5749 37.0666 25.4562 37.0666 25.3324C37.0666 25.2087 37.1158 25.09 37.2033 25.0024C37.2908 24.9149 37.4095 24.8658 37.5333 24.8658ZM37.5333 27.6658H52.4666C52.5904 27.6658 52.7091 27.7149 52.7966 27.8024C52.8841 27.89 52.9333 28.0087 52.9333 28.1324C52.9333 28.2562 52.8841 28.3749 52.7966 28.4624C52.7091 28.5499 52.5904 28.5991 52.4666 28.5991H37.5333C37.4095 28.5991 37.2908 28.5499 37.2033 28.4624C37.1158 28.3749 37.0666 28.2562 37.0666 28.1324C37.0666 28.0087 37.1158 27.89 37.2033 27.8024C37.2908 27.7149 37.4095 27.6658 37.5333 27.6658ZM32.5148 26.4996L34.2666 27.8879V25.1122L32.5148 26.4996Z" fill="white"/>
</g>
</g>
<defs>
<clipPath id="clip0_1402_891">
<rect width="75" height="60" fill="white"/>
</clipPath>
<clipPath id="clip1_1402_891">
<rect width="28" height="28" fill="white" transform="translate(31 16)"/>
</clipPath>
</defs>
</svg>
