<svg width="88" height="70" viewBox="0 0 88 70" fill="none" xmlns="http://www.w3.org/2000/svg">
<g clip-path="url(#clip0_1412_12566)">
<path opacity="0.1" d="M61.5997 34.9986C61.5997 17.8991 47.6585 4.03711 30.4612 4.03711C13.2639 4.03711 -0.677246 17.8991 -0.677246 34.9986C-0.677246 52.0982 13.2639 65.9602 30.4612 65.9602C47.6585 65.9602 61.5997 52.0982 61.5997 34.9986Z" fill="#EB3609"/>
<path d="M85.8 35C85.8 16.8782 71.0254 2.1875 52.8 2.1875C34.5747 2.1875 19.8 16.8782 19.8 35C19.8 53.1218 34.5747 67.8125 52.8 67.8125C71.0254 67.8125 85.8 53.1218 85.8 35Z" fill="#EB3609"/>
<path d="M84.6156 35.0011C84.6156 17.158 70.0683 2.69336 52.1233 2.69336C34.1783 2.69336 19.631 17.158 19.631 35.0011C19.631 52.8441 34.1783 67.3087 52.1233 67.3087C70.0683 67.3087 84.6156 52.8441 84.6156 35.0011Z" stroke="white" stroke-width="4"/>
<path fill-rule="evenodd" clip-rule="evenodd" d="M38 28.494L51.2371 36.1634V51.5L38 43.8316V28.494ZM52.7627 51.5L66 43.8316V28.494L52.7627 36.1634V51.5ZM51.9999 19.5L38.7626 27.1683L51.9999 34.8365L65.2372 27.1683L51.9999 19.5Z" fill="white"/>
</g>
<defs>
<clipPath id="clip0_1412_12566">
<rect width="88" height="70" fill="white"/>
</clipPath>
</defs>
</svg>
