<svg width="91" height="70" viewBox="0 0 91 70" fill="none" xmlns="http://www.w3.org/2000/svg">
<g clip-path="url(#clip0_1417_12728)">
<path opacity="0.4" d="M64.5997 33.9986C64.5997 16.8991 50.6585 3.03711 33.4612 3.03711C16.2639 3.03711 2.32275 16.8991 2.32275 33.9986C2.32275 51.0982 16.2639 64.9602 33.4612 64.9602C50.6585 64.9602 64.5997 51.0982 64.5997 33.9986Z" fill="#6D61FF"/>
<path d="M88.8 34C88.8 15.8782 74.0254 1.1875 55.8 1.1875C37.5747 1.1875 22.8 15.8782 22.8 34C22.8 52.1218 37.5747 66.8125 55.8 66.8125C74.0254 66.8125 88.8 52.1218 88.8 34Z" fill="#6D61FF"/>
<path d="M87.6156 34.0011C87.6156 16.158 73.0683 1.69336 55.1233 1.69336C37.1783 1.69336 22.631 16.158 22.631 34.0011C22.631 51.8441 37.1783 66.3087 55.1233 66.3087C73.0683 66.3087 87.6156 51.8441 87.6156 34.0011Z" stroke="white" stroke-width="4"/>
<path fill-rule="evenodd" clip-rule="evenodd" d="M41 27.494L54.2371 35.1634V50.5L41 42.8316V27.494ZM55.7627 50.5L69 42.8316V27.494L55.7627 35.1634V50.5ZM54.9999 18.5L41.7626 26.1683L54.9999 33.8365L68.2372 26.1683L54.9999 18.5Z" fill="white"/>
</g>
<defs>
<clipPath id="clip0_1417_12728">
<rect width="91" height="70" fill="white"/>
</clipPath>
</defs>
</svg>
