<svg width="64" height="64" viewBox="0 0 64 64" fill="none" xmlns="http://www.w3.org/2000/svg">
<path d="M46.9216 3.2H45.8667C45.8667 1.43573 44.431 0 42.6667 0H21.3334C19.5691 0 18.1334 1.43573 18.1334 3.2H17.0784C16.5099 3.19843 15.9469 3.31101 15.4227 3.53106C14.8984 3.75111 14.4237 4.07417 14.0267 4.48107C13.6271 4.88472 13.3127 5.36457 13.1021 5.89211C12.8916 6.41965 12.7892 6.98412 12.8011 7.552L13.8144 59.8176C13.8571 62.1237 15.776 64 18.0918 64H45.9104C48.2262 64 50.1451 62.1237 50.1878 59.8187L51.2011 7.552V7.54987C51.2124 6.98239 51.1097 6.4184 50.8992 5.89129C50.6887 5.36418 50.3746 4.88465 49.9755 4.48107C49.5784 4.07426 49.1037 3.75127 48.5795 3.53123C48.0553 3.31118 47.4923 3.19855 46.9238 3.2H46.9216ZM48.0534 59.7781C48.032 60.9301 47.0699 61.8667 45.9094 61.8667H18.0907C17.5316 61.866 16.9948 61.6474 16.5945 61.2572C16.1941 60.8669 15.9617 60.3359 15.9467 59.7771L14.9334 7.51253C14.9276 7.22839 14.979 6.94599 15.0845 6.68211C15.1901 6.41824 15.3476 6.17829 15.5478 5.97653C15.7468 5.77226 15.9849 5.61007 16.2478 5.49958C16.5108 5.38909 16.7932 5.33255 17.0784 5.33333H19.2C19.4829 5.33333 19.7542 5.22095 19.9543 5.02091C20.1543 4.82088 20.2667 4.54956 20.2667 4.26667V3.2C20.2667 2.9171 20.3791 2.64579 20.5791 2.44575C20.7792 2.24571 21.0505 2.13333 21.3334 2.13333H42.6667C42.9496 2.13333 43.2209 2.24571 43.4209 2.44575C43.621 2.64579 43.7334 2.9171 43.7334 3.2V4.26667C43.7334 4.54956 43.8457 4.82088 44.0458 5.02091C44.2458 5.22095 44.5171 5.33333 44.8 5.33333H46.9216C47.5019 5.33333 48.0448 5.5616 48.4523 5.97653C48.8587 6.3904 49.0774 6.93547 49.0667 7.51253L48.0534 59.7781Z" fill="#EB3609"/>
<path d="M43.7334 7.4668H20.2668C19.0902 7.4668 18.1334 8.4236 18.1334 9.60013V27.7335C18.1334 28.91 19.0902 29.8668 20.2668 29.8668H43.7334C44.91 29.8668 45.8668 28.91 45.8668 27.7335V9.60013C45.8668 8.4236 44.91 7.4668 43.7334 7.4668ZM20.2668 27.7335V9.60013H43.7334L43.7356 27.7335H20.2668ZM33.0668 34.1335H30.9334C29.7569 34.1335 28.8001 35.0903 28.8001 36.2668V38.4001C28.8001 39.5767 29.7569 40.5335 30.9334 40.5335H33.0668C34.2433 40.5335 35.2001 39.5767 35.2001 38.4001V36.2668C35.2001 35.0903 34.2433 34.1335 33.0668 34.1335ZM30.9334 38.4001V36.2668H33.0668L33.0689 38.4001H30.9334ZM24.5334 34.1335H22.4001C21.2236 34.1335 20.2668 35.0903 20.2668 36.2668V38.4001C20.2668 39.5767 21.2236 40.5335 22.4001 40.5335H24.5334C25.71 40.5335 26.6668 39.5767 26.6668 38.4001V36.2668C26.6668 35.0903 25.71 34.1335 24.5334 34.1335ZM22.4001 38.4001V36.2668H24.5334L24.5356 38.4001H22.4001ZM41.6001 34.1335H39.4668C38.2902 34.1335 37.3334 35.0903 37.3334 36.2668V38.4001C37.3334 39.5767 38.2902 40.5335 39.4668 40.5335H41.6001C42.7766 40.5335 43.7334 39.5767 43.7334 38.4001V36.2668C43.7334 35.0903 42.7766 34.1335 41.6001 34.1335ZM39.4668 38.4001V36.2668H41.6001L41.6022 38.4001H39.4668ZM33.0668 42.6668H30.9334C29.7569 42.6668 28.8001 43.6236 28.8001 44.8001V46.9335C28.8001 48.11 29.7569 49.0668 30.9334 49.0668H33.0668C34.2433 49.0668 35.2001 48.11 35.2001 46.9335V44.8001C35.2001 43.6236 34.2433 42.6668 33.0668 42.6668ZM30.9334 46.9335V44.8001H33.0668L33.0689 46.9335H30.9334ZM24.5334 42.6668H22.4001C21.2236 42.6668 20.2668 43.6236 20.2668 44.8001V46.9335C20.2668 48.11 21.2236 49.0668 22.4001 49.0668H24.5334C25.71 49.0668 26.6668 48.11 26.6668 46.9335V44.8001C26.6668 43.6236 25.71 42.6668 24.5334 42.6668ZM22.4001 46.9335V44.8001H24.5334L24.5356 46.9335H22.4001ZM41.6001 42.6668H39.4668C38.2902 42.6668 37.3334 43.6236 37.3334 44.8001V46.9335C37.3334 48.11 38.2902 49.0668 39.4668 49.0668H41.6001C42.7766 49.0668 43.7334 48.11 43.7334 46.9335V44.8001C43.7334 43.6236 42.7766 42.6668 41.6001 42.6668ZM39.4668 46.9335V44.8001H41.6001L41.6022 46.9335H39.4668ZM33.0668 51.2001H30.9334C29.7569 51.2001 28.8001 52.1569 28.8001 53.3335V55.4668C28.8001 56.6433 29.7569 57.6001 30.9334 57.6001H33.0668C34.2433 57.6001 35.2001 56.6433 35.2001 55.4668V53.3335C35.2001 52.1569 34.2433 51.2001 33.0668 51.2001ZM30.9334 55.4668V53.3335H33.0668L33.0689 55.4668H30.9334ZM24.5334 51.2001H22.4001C21.2236 51.2001 20.2668 52.1569 20.2668 53.3335V54.4001C20.2668 56.1644 21.7025 57.6001 23.4668 57.6001H24.5334C25.71 57.6001 26.6668 56.6433 26.6668 55.4668V53.3335C26.6668 52.1569 25.71 51.2001 24.5334 51.2001ZM23.4668 55.4668C23.1839 55.4668 22.9125 55.3544 22.7125 55.1544C22.5125 54.9543 22.4001 54.683 22.4001 54.4001V53.3335H24.5334L24.5356 55.4668H23.4668ZM41.6001 51.2001H39.4668C38.2902 51.2001 37.3334 52.1569 37.3334 53.3335V55.4668C37.3334 56.6433 38.2902 57.6001 39.4668 57.6001H40.5334C42.2977 57.6001 43.7334 56.1644 43.7334 54.4001V53.3335C43.7334 52.1569 42.7766 51.2001 41.6001 51.2001ZM41.6001 54.4001C41.6001 54.683 41.4877 54.9543 41.2877 55.1544C41.0876 55.3544 40.8163 55.4668 40.5334 55.4668H39.4668V53.3335H41.6001V54.4001Z" fill="#EB3609"/>
<path d="M35.2001 16.2658C35.2001 16.5487 35.3125 16.82 35.5125 17.02C35.7125 17.22 35.9839 17.3324 36.2667 17.3324C36.5496 17.3324 36.821 17.22 37.021 17.02C37.221 16.82 37.3334 16.5487 37.3334 16.2658C37.3334 14.5292 35.5606 13.1692 33.0667 12.8652V12.7991C33.0667 12.5162 32.9544 12.2449 32.7543 12.0448C32.5543 11.8448 32.283 11.7324 32.0001 11.7324C31.7172 11.7324 31.4459 11.8448 31.2458 12.0448C31.0458 12.2449 30.9334 12.5162 30.9334 12.7991V12.8652C28.4395 13.1692 26.6667 14.5292 26.6667 16.2658C26.6667 18.0023 28.4395 19.3623 30.9334 19.6663V22.301C29.5947 22.0674 28.8001 21.4423 28.8001 21.0647C28.8001 20.7818 28.6877 20.5105 28.4877 20.3104C28.2876 20.1104 28.0163 19.998 27.7334 19.998C27.4505 19.998 27.1792 20.1104 26.9792 20.3104C26.7791 20.5105 26.6667 20.7818 26.6667 21.0647C26.6667 22.8012 28.4395 24.1612 30.9334 24.4652V24.5314C30.9334 24.8143 31.0458 25.0856 31.2458 25.2856C31.4459 25.4856 31.7172 25.598 32.0001 25.598C32.283 25.598 32.5543 25.4856 32.7543 25.2856C32.9544 25.0856 33.0667 24.8143 33.0667 24.5314V24.4652C35.5606 24.1612 37.3334 22.8012 37.3334 21.0647C37.3334 19.3282 35.5606 17.9682 33.0667 17.6642V15.0295C34.4054 15.2631 35.2001 15.8882 35.2001 16.2658ZM28.8001 16.2658C28.8001 15.8882 29.5947 15.2631 30.9334 15.0295V17.501C29.5947 17.2674 28.8001 16.6423 28.8001 16.2647V16.2658ZM35.2001 21.0658C35.2001 21.4434 34.4054 22.0684 33.0667 22.302V19.8306C34.4054 20.0642 35.2001 20.6882 35.2001 21.0658Z" fill="#EB3609"/>
</svg>
