<svg width="75" height="60" viewBox="0 0 75 60" fill="none" xmlns="http://www.w3.org/2000/svg">
<g clip-path="url(#clip0_1336_6433)">
<path opacity="0.1" d="M52.4998 29.9994C52.4998 15.3426 40.6181 3.46094 25.9613 3.46094C11.3045 3.46094 -0.577148 15.3426 -0.577148 29.9994C-0.577148 44.6562 11.3045 56.5379 25.9613 56.5379C40.6181 56.5379 52.4998 44.6562 52.4998 29.9994Z" fill="#27C840"/>
<path d="M73.125 30C73.125 14.467 60.533 1.875 45 1.875C29.467 1.875 16.875 14.467 16.875 30C16.875 45.533 29.467 58.125 45 58.125C60.533 58.125 73.125 45.533 73.125 30Z" fill="#27C840"/>
<path d="M72.1156 30.0009C72.1156 14.7069 59.7173 2.30859 44.4233 2.30859C29.1292 2.30859 16.731 14.7069 16.731 30.0009C16.731 45.2949 29.1292 57.6932 44.4233 57.6932C59.7173 57.6932 72.1156 45.2949 72.1156 30.0009Z" stroke="white" stroke-width="4"/>
<path d="M30.5001 31.499C30.5001 26.0783 30.5001 23.368 32.1828 21.684C33.8654 20 36.5736 20 41.9899 20H47.7348C53.1511 20 55.8592 20 57.5419 21.684C59.2245 23.368 59.2245 26.0783 59.2245 31.499C59.2245 36.9197 59.2245 39.6301 57.5419 41.3141C55.8592 42.998 53.1511 42.998 47.7348 42.998H41.9899C36.5736 42.998 33.8654 42.998 32.1828 41.3141C30.5001 39.6301 30.5001 36.9197 30.5001 31.499Z" fill="white" stroke="white" stroke-width="1.5"/>
<path d="M36.2451 25.752L39.3458 28.3379C41.9836 30.5379 43.3025 31.6378 44.8624 31.6378C46.4224 31.6378 47.7413 30.5379 50.3791 28.3379L53.4798 25.752" stroke="#27C840" stroke-width="1.5" stroke-linecap="round"/>
</g>
<defs>
<clipPath id="clip0_1336_6433">
<rect width="75" height="60" fill="white"/>
</clipPath>
</defs>
</svg>
