<svg width="93" height="74" viewBox="0 0 93 74" fill="none" xmlns="http://www.w3.org/2000/svg">
<g clip-path="url(#clip0_782_21047)">
<path d="M65.1 37C65.1 19.1198 50.5269 4.625 32.55 4.625C14.5731 4.625 0 19.1198 0 37C0 54.8802 14.5731 69.375 32.55 69.375C50.5269 69.375 65.1 54.8802 65.1 37Z" fill="#27C840" fill-opacity="0.2"/>
<path d="M90.6748 37C90.6748 17.8426 75.0607 2.3125 55.7998 2.3125C36.5389 2.3125 20.9248 17.8426 20.9248 37C20.9248 56.1574 36.5389 71.6875 55.7998 71.6875C75.0607 71.6875 90.6748 56.1574 90.6748 37Z" fill="#27C840"/>
<path d="M90.6748 37C90.6748 17.8426 75.0607 2.3125 55.7998 2.3125C36.5389 2.3125 20.9248 17.8426 20.9248 37C20.9248 56.1574 36.5389 71.6875 55.7998 71.6875C75.0607 71.6875 90.6748 56.1574 90.6748 37Z" stroke="white" stroke-width="4"/>
<path d="M56.4999 17C45.7555 17 37 25.7555 37 36.4999C37 47.2445 45.7555 56 56.4999 56C67.2445 56 76 47.2445 76 36.4999C76 25.7555 67.2445 17 56.4999 17ZM65.821 32.015L54.7645 43.0715C54.4915 43.3444 54.121 43.5005 53.731 43.5005C53.3409 43.5005 52.9705 43.3444 52.6974 43.0715L47.179 37.5529C46.6134 36.9875 46.6134 36.0515 47.179 35.486C47.7445 34.9204 48.6805 34.9204 49.2459 35.486L53.731 39.971L63.7539 29.9479C64.3195 29.3825 65.2555 29.3825 65.821 29.9479C66.3864 30.5135 66.3864 31.43 65.821 32.015Z" fill="white"/>
</g>
<defs>
<clipPath id="clip0_782_21047">
<rect width="93" height="74" fill="white"/>
</clipPath>
</defs>
</svg>
