<svg width="95" height="73" viewBox="0 0 95 73" fill="none" xmlns="http://www.w3.org/2000/svg">
<rect x="3" y="4" width="90" height="65" rx="32.5" fill="#6D61FF"/>
<rect x="2" y="3" width="92" height="67" rx="33.5" stroke="#6D61FF" stroke-opacity="0.5" stroke-width="2"/>
<path d="M56.75 21H38.25C32.7 21 29 24.5539 29 29.885V40.5471C29 45.8782 32.7 49.4323 38.25 49.4323V53.2173C38.25 54.639 39.8964 55.4919 41.1174 54.6923L49.35 49.4323H56.75C62.3 49.4323 66 45.8782 66 40.5471V29.885C66 24.5539 62.3 21 56.75 21ZM47.4999 42.6262C46.7229 42.6262 46.1124 42.0221 46.1124 41.2935C46.1124 40.565 46.7229 39.9607 47.4999 39.9607C48.2769 39.9607 48.8874 40.565 48.8874 41.2935C48.8874 42.0221 48.2769 42.6262 47.4999 42.6262ZM49.8309 35.2516C49.1094 35.7137 48.8874 36.0157 48.8874 36.5134V36.8865C48.8874 37.615 48.2585 38.2193 47.4999 38.2193C46.7415 38.2193 46.1124 37.615 46.1124 36.8865V36.5134C46.1124 34.452 47.685 33.4391 48.2769 33.0482C48.9615 32.6038 49.1835 32.3018 49.1835 31.8398C49.1835 30.9512 48.425 30.2227 47.4999 30.2227C46.575 30.2227 45.8165 30.9512 45.8165 31.8398C45.8165 32.5684 45.1875 33.1725 44.429 33.1725C43.6704 33.1725 43.0415 32.5684 43.0415 31.8398C43.0415 29.4764 45.0395 27.5572 47.4999 27.5572C49.9605 27.5572 51.9585 29.4764 51.9585 31.8398C51.9585 33.8656 50.4045 34.8785 49.8309 35.2516Z" fill="white"/>
</svg>
