<svg width="50" height="50" viewBox="0 0 50 50" fill="none" xmlns="http://www.w3.org/2000/svg">
<g clip-path="url(#clip0_828_83505)">
<path d="M25 0C20.0555 0 15.222 1.46622 11.1108 4.21326C6.99953 6.9603 3.79521 10.8648 1.90302 15.4329C0.010832 20.0011 -0.484251 25.0277 0.480379 29.8773C1.44501 34.7268 3.82603 39.1814 7.32234 42.6777C10.8187 46.174 15.2732 48.555 20.1228 49.5196C24.9723 50.4843 29.9989 49.9892 34.5671 48.097C39.1352 46.2048 43.0397 43.0005 45.7868 38.8893C48.5338 34.778 50 29.9445 50 25C50 18.3696 47.3661 12.0107 42.6777 7.32233C37.9893 2.63392 31.6304 0 25 0ZM32.1119 16.2697C32.1119 16.7401 31.9145 16.9276 31.454 16.9276C30.5691 16.9276 29.6842 16.9276 28.8026 16.9638C27.9211 17 27.4408 17.4013 27.4408 18.3224C27.4211 19.3092 27.4408 20.2763 27.4408 21.2829H31.227C31.7665 21.2829 31.9507 21.4671 31.9507 22.0099V25.977C31.9507 26.5132 31.7796 26.6809 31.2369 26.6842H27.4079V37.3882C27.4079 37.9605 27.2303 38.1414 26.6645 38.1414H22.5461C22.0494 38.1414 21.8553 37.9474 21.8553 37.4507V26.7007H18.5855C18.0724 26.7007 17.8882 26.5132 17.8882 25.9967V22.0066C17.8882 21.4934 18.0822 21.2993 18.5888 21.2993H21.8553V18.4211C21.8165 17.1282 22.1267 15.8487 22.7533 14.7171C23.4047 13.5747 24.4484 12.7074 25.6908 12.2763C26.4971 11.9829 27.3493 11.8359 28.2072 11.8421H31.4408C31.9046 11.8421 32.0987 12.0461 32.0987 12.5C32.1151 13.7664 32.1151 15.0197 32.1119 16.2697Z" fill="white"/>
</g>
<defs>
<clipPath id="clip0_828_83505">
<rect width="50" height="50" fill="white"/>
</clipPath>
</defs>
</svg>
