<svg width="40" height="40" viewBox="0 0 40 40" fill="none" xmlns="http://www.w3.org/2000/svg">
<g clip-path="url(#clip0_1880_644)">
<path fill-rule="evenodd" clip-rule="evenodd" d="M24.8291 2.77326C27.4852 5.42936 27.4852 9.77553 24.8291 12.4316C22.1731 15.0876 17.8269 15.0876 15.1708 12.4316C12.5147 9.77561 12.5147 5.42936 15.1708 2.77326C17.8269 0.117246 22.1731 0.117246 24.8291 2.77326ZM2.77326 15.1708C5.42936 12.5147 9.77553 12.5147 12.4316 15.1708C15.0876 17.8269 15.0876 22.1731 12.4316 24.8291C9.77561 27.4852 5.42936 27.4852 2.77326 24.8291C0.117246 22.1731 0.117246 17.8269 2.77326 15.1708ZM15.1708 37.2266C12.5147 34.5705 12.5147 30.2244 15.1708 27.5683C17.8269 24.9122 22.1731 24.9122 24.8291 27.5683C27.4852 30.2243 27.4852 34.5705 24.8291 37.2266C22.1731 39.8827 17.8269 39.8827 15.1708 37.2266ZM37.2266 24.8291C34.5705 27.4852 30.2244 27.4852 27.5683 24.8291C24.9123 22.1731 24.9123 17.8269 27.5683 15.1708C30.2244 12.5147 34.5706 12.5147 37.2266 15.1708C39.8827 17.8269 39.8827 22.1731 37.2266 24.8291Z" stroke="#EB3609" stroke-width="2" stroke-miterlimit="22.9256" stroke-linecap="round" stroke-linejoin="round"/>
</g>
<defs>
<clipPath id="clip0_1880_644">
<rect width="40" height="40" fill="white"/>
</clipPath>
</defs>
</svg>
