<svg width="50" height="50" viewBox="0 0 50 50" fill="none" xmlns="http://www.w3.org/2000/svg">
<g clip-path="url(#clip0_2167_1276)">
<path d="M41.2113 -0.00259966C41.6575 0.139679 42.1246 0.229746 42.546 0.433374C44.3725 1.3249 45.3027 2.81427 45.3092 4.84142C45.3236 9.82379 45.3092 14.8075 45.3092 19.7899V32.0507C45.3222 32.2293 45.3148 32.4089 45.287 32.5858C45.1931 32.9774 44.9309 33.2124 44.5212 33.2085C44.1115 33.2046 43.8532 32.9683 43.7671 32.5728C43.7416 32.3956 43.735 32.2162 43.7476 32.0376C43.7476 26.2577 43.7476 20.4773 43.7476 14.6965V14.0948H1.56751V14.5947C1.56751 23.1932 1.56751 31.7909 1.56751 40.3877C1.56751 42.454 2.8878 43.7698 4.95955 43.7698H29.9576C30.105 43.7698 30.2511 43.7698 30.3973 43.7698C30.9191 43.7893 31.2648 44.1131 31.2505 44.5725C31.2374 45.0111 30.9048 45.3074 30.4012 45.3309C30.3359 45.3309 30.2707 45.3309 30.2055 45.3309C21.7593 45.3309 13.3127 45.3309 4.86562 45.3309C2.55512 45.3309 0.698628 43.9199 0.158511 41.7557C0.0571207 41.3281 0.00762188 40.8898 0.0110865 40.4503C0.00499822 28.5981 0.00195312 16.7446 0.00195312 4.88971C0.00195312 2.40179 1.49184 0.582179 3.92629 0.0718021C3.98741 0.0526157 4.04642 0.0272484 4.10241 -0.00390625L41.2113 -0.00259966ZM43.7515 12.4866C43.7515 9.92822 43.7515 7.42202 43.7515 4.91582C43.7515 2.88214 42.422 1.56247 40.3803 1.56116H4.93346C2.89171 1.56116 1.56751 2.88345 1.56359 4.91712C1.56359 7.27713 1.56359 9.638 1.56359 11.9998C1.56359 12.1564 1.57795 12.3143 1.58708 12.4866H43.7515Z" fill="#132436"/>
<path d="M49.9992 41.4298C49.7187 41.6347 49.463 41.8932 49.1525 42.0354C47.8988 42.6098 46.6294 43.1476 45.3169 43.7206L46.3515 46.1433C46.7063 46.9747 46.5954 47.2658 45.7683 47.6235C44.0558 48.3649 42.341 49.1046 40.6241 49.8425C39.8857 50.1584 39.5804 50.0305 39.253 49.2825C38.9046 48.4798 38.5602 47.6757 38.1936 46.8233L35.6339 47.9341C35.1421 48.1469 34.6528 48.3662 34.1584 48.5724C33.3756 48.8988 32.8955 48.5724 32.8955 47.7122C32.8955 40.7628 32.8955 33.8133 32.8955 26.8638C32.8955 26.4787 32.9673 26.1524 33.3521 25.9749C33.7644 25.7856 34.0671 25.9749 34.3567 26.2477L43.3587 34.633C45.3939 36.5309 47.4278 38.4297 49.4604 40.3294C49.66 40.516 49.8257 40.7366 50.007 40.9429L49.9992 41.4298ZM34.4741 28.5228V46.7163C34.6307 46.6602 34.752 46.6249 34.8655 46.5753C35.9092 46.1237 36.9529 45.6699 37.9966 45.2139C38.7794 44.8719 39.1029 44.9972 39.4408 45.7856C39.7787 46.574 40.1258 47.3859 40.4845 48.2148L44.7429 46.3573C44.3632 45.4645 43.9953 44.6173 43.6404 43.765C43.3795 43.1463 43.5322 42.786 44.1466 42.5171C44.5628 42.3343 44.9842 42.1621 45.4017 41.9819C46.1845 41.6425 46.9673 41.3005 47.8048 40.9377L34.4741 28.5228Z" fill="#132436"/>
<path d="M28.1889 25.0194C28.1041 25.2059 28.001 25.3834 27.881 25.5494C27.4674 26.031 27.0082 26.4749 26.6116 26.9683C26.4713 27.1694 26.3953 27.4083 26.3937 27.6536C26.3694 28.4968 26.3694 29.34 26.3937 30.1832C26.3961 30.4286 26.4735 30.6673 26.6155 30.8672C27.0069 31.3593 27.4609 31.8123 27.8953 32.2757C28.185 32.5824 28.2789 32.9362 28.0715 33.3029C27.5279 34.2602 26.9682 35.21 26.3924 36.1524C26.1745 36.5088 25.8249 36.6002 25.41 36.4944C24.8125 36.343 24.2111 36.189 23.6031 36.095C23.358 36.0755 23.1127 36.131 22.8999 36.2543C22.1289 36.668 21.3722 37.1066 20.6207 37.5596C20.4485 37.6582 20.3116 37.8084 20.2293 37.989C20.0023 38.5973 19.8118 39.2199 19.6201 39.8413C19.4896 40.2851 19.1934 40.5357 18.7342 40.5409C17.6905 40.5527 16.6572 40.554 15.6188 40.5409C15.1608 40.5344 14.8777 40.2798 14.7473 39.8282C14.5711 39.2199 14.3859 38.6116 14.1641 38.019C14.0768 37.8233 13.9309 37.6596 13.7466 37.5504C12.9995 37.0979 12.2406 36.6628 11.47 36.2451C11.2725 36.1309 11.0452 36.0791 10.8177 36.0963C10.2097 36.1942 9.60701 36.3378 9.00949 36.4879C8.57505 36.6002 8.21627 36.514 7.98796 36.1342C7.42871 35.2039 6.88468 34.2641 6.35587 33.3147C6.15105 32.9492 6.22541 32.5981 6.52286 32.2874C6.92469 31.8632 7.30564 31.4089 7.71399 30.9965C7.97492 30.7354 8.04537 30.4639 8.0258 30.0893C7.98144 29.2656 8.03232 28.4354 8.01275 27.6092C8.00957 27.3793 7.93578 27.156 7.8014 26.9696C7.40088 26.4775 6.96253 26.0167 6.52678 25.5559C6.23324 25.2452 6.14844 24.8967 6.35457 24.5299C6.88251 23.5823 7.42567 22.642 7.98405 21.7092C8.21106 21.3306 8.56722 21.2379 9.00297 21.3489C9.64746 21.5121 10.3272 21.8214 10.9456 21.7405C11.564 21.6596 12.0832 21.1492 12.6507 20.8333C12.8682 20.6896 13.1027 20.5735 13.3487 20.4874C13.9345 20.3321 14.2176 19.9561 14.3467 19.3831C14.4537 18.9093 14.639 18.4537 14.7825 17.9877C14.9064 17.587 15.1739 17.3259 15.5874 17.3194C16.6742 17.3011 17.761 17.2985 18.849 17.3194C19.2652 17.3272 19.5222 17.5909 19.6435 17.9968C19.8288 18.6195 20.0154 19.2434 20.2385 19.853C20.3205 20.0338 20.4575 20.1841 20.6298 20.2825C21.3944 20.738 22.1667 21.1844 22.9534 21.6021C23.1701 21.7202 23.4177 21.7694 23.6631 21.7431C24.2711 21.6452 24.8699 21.4886 25.47 21.3411C25.8405 21.251 26.1837 21.3097 26.3833 21.6335C26.9808 22.6164 27.5483 23.6175 28.1184 24.6161C28.1586 24.7471 28.1823 24.8826 28.1889 25.0194ZM7.90055 33.0863C8.21497 33.6201 8.5059 34.1449 8.83597 34.6448C8.88932 34.7033 8.95549 34.7486 9.02929 34.7771C9.10309 34.8056 9.18251 34.8166 9.26128 34.8093C9.83793 34.7127 10.412 34.5926 10.9769 34.4438C11.1694 34.3801 11.3758 34.3708 11.5733 34.4168C11.7708 34.4629 11.9517 34.5625 12.0963 34.7049C12.8552 35.399 13.7557 35.9201 14.7355 36.2321C14.9248 36.2805 15.0972 36.38 15.2338 36.5197C15.3705 36.6594 15.4662 36.834 15.5105 37.0244C15.564 37.228 15.6409 37.4277 15.6996 37.6287C16.1993 39.203 16.198 39.1951 17.881 39.0646C18.1484 39.0437 18.2867 38.9536 18.3611 38.6913C18.5081 38.1111 18.6943 37.5416 18.9182 36.9865C19.0486 36.7072 19.3096 36.3952 19.5705 36.2921C20.5919 35.9106 21.5419 35.3599 22.3807 34.6631C22.5972 34.4829 22.9664 34.449 23.2717 34.4294C23.5039 34.4138 23.744 34.5299 23.9827 34.5782C25.6161 34.9098 25.6122 34.9072 26.3311 33.3604C26.4368 33.1372 26.4276 32.9897 26.2515 32.8082C25.8223 32.3631 25.4191 31.8945 24.9964 31.4416C24.8759 31.321 24.7894 31.1707 24.7456 31.0059C24.7018 30.841 24.7024 30.6676 24.7473 30.503C24.9551 29.4468 24.9609 28.3608 24.7642 27.3024C24.7186 27.0257 24.8699 26.6941 24.9964 26.4174C25.0878 26.2203 25.2874 26.0715 25.4413 25.9031C26.5972 24.6304 26.5933 24.6331 25.5979 23.2246C25.4583 23.0275 25.337 22.9453 25.076 23.0145C24.4968 23.1711 23.9019 23.2755 23.3187 23.4152C23.1465 23.4651 22.9643 23.4685 22.7904 23.4252C22.6165 23.3819 22.4571 23.2933 22.3285 23.1685C21.5216 22.4571 20.5852 21.9079 19.5705 21.5512C19.2965 21.4494 19.033 21.1387 18.909 20.8607C18.6827 20.3036 18.4957 19.7314 18.3493 19.1481C18.2763 18.8871 18.1471 18.7657 17.8745 18.7722C17.4035 18.7813 16.9286 18.7474 16.4615 18.7918C16.3691 18.8123 16.2824 18.8536 16.2081 18.9123C16.1338 18.9711 16.0737 19.0459 16.0323 19.1312C15.8236 19.6768 15.6605 20.2394 15.5 20.802C15.3826 21.2144 15.1191 21.4259 14.7329 21.606C13.9501 21.9754 13.1126 22.3279 12.4446 22.8657C11.7766 23.4035 11.2248 23.4935 10.4446 23.2899C8.78509 22.8565 8.78118 22.8983 8.04798 24.4803C7.9423 24.7075 7.95143 24.851 8.12756 25.0312C8.53591 25.4515 8.91034 25.9018 9.31999 26.3221C9.46233 26.4563 9.56564 26.6266 9.61894 26.8148C9.67224 27.0031 9.67353 27.2023 9.62267 27.3912C9.39699 28.3955 9.39699 29.4374 9.62267 30.4417C9.67504 30.63 9.67566 30.8289 9.62446 31.0175C9.57325 31.2062 9.47213 31.3775 9.33174 31.5134C8.86337 32.0159 8.40153 32.5406 7.90055 33.0863Z" fill="#132436"/>
<path d="M43.7504 12.4919H1.58599C1.57686 12.3196 1.5638 12.1616 1.5625 12.005C1.5625 9.64325 1.5625 7.28237 1.5625 4.92236C1.5625 2.88869 2.89062 1.56771 4.93237 1.56641H40.3779C42.4196 1.56641 43.7465 2.88738 43.7491 4.92106C43.753 7.42726 43.7504 9.93346 43.7504 12.4919ZM25.7686 9.38131C26.0776 9.38131 26.3835 9.32032 26.6688 9.20184C26.9541 9.08336 27.2133 8.90971 27.4315 8.69084C27.6496 8.47197 27.8225 8.21218 27.9401 7.92637C28.0577 7.64055 28.1178 7.33432 28.117 7.02522C28.1115 6.40886 27.8642 5.81933 27.4283 5.38372C26.9925 4.94811 26.403 4.70132 25.7869 4.69655C25.1641 4.69655 24.5668 4.94409 24.1264 5.38472C23.686 5.82535 23.4386 6.42297 23.4386 7.04611C23.4423 7.66361 23.6889 8.2548 24.1249 8.69182C24.561 9.12883 25.1515 9.37652 25.7686 9.38131ZM32.0204 9.38131C32.3296 9.38131 32.6357 9.32024 32.9212 9.20159C33.2067 9.08295 33.466 8.90906 33.6842 8.68992C33.9024 8.47077 34.0752 8.21068 34.1926 7.92456C34.3101 7.63844 34.37 7.33193 34.3688 7.02261C34.3626 6.40625 34.1146 5.817 33.6783 5.38188C33.2419 4.94676 32.6521 4.70063 32.0361 4.69655C31.727 4.69655 31.421 4.75758 31.1356 4.87614C30.8502 4.99471 30.591 5.16848 30.3728 5.38749C30.1546 5.60649 29.9818 5.86643 29.8643 6.1524C29.7467 6.43836 29.6867 6.74473 29.6877 7.05394C29.6936 7.67053 29.9414 8.26012 30.3778 8.69552C30.8142 9.13092 31.4041 9.37723 32.0204 9.38131ZM38.2161 9.38131C38.5254 9.38876 38.8331 9.335 39.1215 9.22312C39.41 9.11123 39.6735 8.94343 39.8969 8.72935C40.1203 8.51526 40.2993 8.25912 40.4235 7.97563C40.5477 7.69214 40.6146 7.3869 40.6206 7.07744C40.6287 6.46136 40.3947 5.86673 39.9688 5.42164C39.543 4.97655 38.9595 4.71662 38.344 4.69785C38.0347 4.6904 37.727 4.74416 37.4386 4.85605C37.1501 4.96793 36.8866 5.13574 36.6632 5.34982C36.4398 5.5639 36.2608 5.82005 36.1366 6.10353C36.0124 6.38702 35.9455 6.69227 35.9395 7.00173C35.9317 7.61758 36.1659 8.21188 36.5917 8.65669C37.0175 9.10149 37.6008 9.36124 38.2161 9.38001V9.38131Z" fill="white"/>
<path d="M34.4779 28.5195L47.8034 40.9331C46.9671 41.2972 46.1843 41.6392 45.4003 41.9773C44.9828 42.1574 44.5614 42.3297 44.1452 42.5125C43.5307 42.7814 43.382 43.1416 43.639 43.7604C43.9939 44.6127 44.3618 45.4573 44.7414 46.3527L40.4831 48.2102C40.1269 47.3813 39.7851 46.5811 39.4394 45.781C39.0937 44.9808 38.7805 44.8673 37.9952 45.2093C36.9515 45.6652 35.9078 46.1191 34.864 46.5707C34.7492 46.6203 34.6279 46.6555 34.4727 46.7117L34.4779 28.5195Z" fill="white"/>
<path d="M25.7695 9.37746C25.1535 9.37269 24.564 9.1259 24.1281 8.69029C23.6922 8.25468 23.4449 7.66515 23.4395 7.04878C23.4395 6.42564 23.6869 5.82802 24.1273 5.38739C24.5677 4.94676 25.165 4.69922 25.7878 4.69922C26.4038 4.70399 26.9933 4.95078 27.4292 5.38639C27.8651 5.822 28.1124 6.41153 28.1179 7.0279C28.1179 7.65104 27.8704 8.24866 27.43 8.68929C26.9896 9.12992 26.3923 9.37746 25.7695 9.37746ZM25.8034 6.25515C25.5993 6.25049 25.4014 6.32581 25.252 6.46505C25.1026 6.60429 25.0135 6.79643 25.0037 7.00049C24.9998 7.10573 25.0172 7.21066 25.0548 7.30902C25.0924 7.40738 25.1495 7.49715 25.2226 7.57294C25.2956 7.64874 25.3833 7.70901 25.4801 7.75015C25.577 7.79129 25.6812 7.81246 25.7865 7.81239C25.9903 7.81004 26.1851 7.72827 26.3296 7.58445C26.474 7.44064 26.5567 7.24613 26.5601 7.04226C26.5613 6.83831 26.4828 6.64197 26.3415 6.49498C26.2002 6.34799 26.0072 6.26195 25.8034 6.25515Z" fill="#DD816A"/>
<path d="M32.0208 9.37617C31.4048 9.37175 30.8151 9.12529 30.379 8.68992C29.9429 8.25456 29.6953 7.66516 29.6895 7.0488C29.6884 6.73959 29.7484 6.43322 29.866 6.14726C29.9835 5.86129 30.1563 5.60135 30.3745 5.38234C30.5927 5.16334 30.8519 4.98957 31.1373 4.871C31.4227 4.75244 31.7288 4.6914 32.0378 4.69141C32.6539 4.69548 33.2436 4.94161 33.68 5.37674C34.1164 5.81186 34.3643 6.40111 34.3705 7.01747C34.3717 7.3269 34.3118 7.63352 34.1942 7.91972C34.0767 8.20592 33.9038 8.46607 33.6854 8.68524C33.4671 8.9044 33.2077 9.07826 32.922 9.19683C32.6364 9.3154 32.3301 9.37635 32.0208 9.37617ZM32.0548 6.25387C31.8508 6.24883 31.653 6.32364 31.5034 6.46237C31.3538 6.60109 31.2642 6.79277 31.2537 6.99659C31.2495 7.10204 31.2666 7.20726 31.3041 7.30593C31.3415 7.40459 31.3985 7.49467 31.4716 7.57075C31.5447 7.64683 31.6325 7.70733 31.7295 7.74864C31.8266 7.78994 31.931 7.81119 32.0365 7.8111C32.2414 7.81114 32.4382 7.73078 32.5845 7.58728C32.7309 7.44377 32.8152 7.24857 32.8193 7.04358C32.821 6.83786 32.7418 6.63972 32.5988 6.49195C32.4557 6.34418 32.2603 6.25866 32.0548 6.25387Z" fill="#DD816A"/>
<path d="M38.2162 9.37555C37.6007 9.35677 37.0172 9.09685 36.5914 8.65176C36.1655 8.20667 35.9315 7.61204 35.9397 6.99596C35.9456 6.6865 36.0126 6.38125 36.1368 6.09777C36.2609 5.81428 36.4399 5.55814 36.6633 5.34405C36.8867 5.12997 37.1503 4.96217 37.4387 4.85028C37.7271 4.7384 38.0348 4.68464 38.3441 4.69209C38.9596 4.71086 39.5431 4.97078 39.969 5.41587C40.3948 5.86096 40.6288 6.45559 40.6207 7.07167C40.6148 7.38113 40.5478 7.68638 40.4236 7.96986C40.2994 8.25335 40.1205 8.5095 39.897 8.72358C39.6736 8.93766 39.4101 9.10547 39.1216 9.21735C38.8332 9.32924 38.5255 9.383 38.2162 9.37555ZM39.059 7.07167C39.068 6.86755 38.9969 6.66799 38.8609 6.51557C38.7249 6.36316 38.5348 6.26995 38.3311 6.25585C38.2262 6.24987 38.1212 6.26505 38.0224 6.3005C37.9235 6.33594 37.8328 6.39093 37.7556 6.46217C37.6785 6.53342 37.6164 6.61948 37.5732 6.71522C37.5299 6.81096 37.5064 6.91442 37.5039 7.01946C37.5014 7.22343 37.5785 7.42035 37.7188 7.56832C37.8592 7.71629 38.0517 7.80364 38.2554 7.81178C38.4593 7.81753 38.6574 7.74339 38.8076 7.60515C38.9577 7.46691 39.0479 7.27549 39.059 7.07167Z" fill="#DD816A"/>
<path d="M17.2315 24.2586C19.8408 24.3108 21.9087 26.4385 21.8565 29.0086C21.8069 31.5475 19.6738 33.6255 17.1598 33.5864C14.5845 33.5459 12.5049 31.4313 12.5375 28.8872C12.5701 26.3132 14.7071 24.2116 17.2315 24.2586ZM20.2961 28.9107C20.2855 28.0889 19.9526 27.3042 19.3691 26.7258C18.7855 26.1473 17.9982 25.8214 17.1768 25.8184C16.3619 25.83 15.5838 26.1599 15.0087 26.7377C14.4337 27.3155 14.1072 28.0954 14.0991 28.9107C14.1001 29.733 14.4252 30.5216 15.0039 31.1055C15.5826 31.6893 16.368 32.0212 17.1898 32.0291C18.0134 32.0226 18.8013 31.6916 19.3828 31.1079C19.9642 30.5242 20.2924 29.7348 20.2961 28.9107Z" fill="#DD816A"/>
<path d="M25.8035 6.25415C26.0063 6.26125 26.1985 6.34689 26.3394 6.493C26.4803 6.63912 26.559 6.83428 26.5589 7.03733C26.5555 7.24121 26.4728 7.43572 26.3283 7.57953C26.1839 7.72334 25.989 7.80512 25.7853 7.80747C25.68 7.80754 25.5758 7.78637 25.4789 7.74523C25.382 7.70408 25.2944 7.64381 25.2213 7.56802C25.1483 7.49222 25.0912 7.40246 25.0536 7.3041C25.016 7.20574 24.9986 7.1008 25.0025 6.99556C25.0133 6.79197 25.103 6.60062 25.2526 6.46218C25.4022 6.32373 25.5998 6.2491 25.8035 6.25415Z" fill="white"/>
<path d="M32.0553 6.25447C32.259 6.26194 32.4518 6.34863 32.5926 6.49611C32.7334 6.64359 32.8112 6.84022 32.8093 7.04418C32.8052 7.24917 32.721 7.44438 32.5746 7.58788C32.4283 7.73139 32.2315 7.81175 32.0266 7.81171C31.9211 7.81179 31.8167 7.79055 31.7196 7.74924C31.6225 7.70794 31.5348 7.64743 31.4617 7.57136C31.3886 7.49528 31.3316 7.4052 31.2941 7.30653C31.2567 7.20787 31.2396 7.10265 31.2438 6.99719C31.2543 6.79151 31.3453 6.59823 31.4972 6.45922C31.6491 6.32021 31.8496 6.24665 32.0553 6.25447Z" fill="white"/>
<path d="M39.0601 7.071C39.0489 7.27482 38.9587 7.46623 38.8086 7.60448C38.6585 7.74272 38.4603 7.81686 38.2564 7.81111C38.0527 7.80297 37.8602 7.71562 37.7198 7.56765C37.5795 7.41968 37.5024 7.22276 37.5049 7.01879C37.5074 6.91375 37.5309 6.81029 37.5742 6.71455C37.6174 6.61881 37.6795 6.53275 37.7567 6.4615C37.8338 6.39025 37.9246 6.33527 38.0234 6.29982C38.1223 6.26438 38.2272 6.24919 38.3321 6.25518C38.5358 6.26928 38.726 6.36249 38.862 6.5149C38.998 6.66732 39.0691 6.86687 39.0601 7.071Z" fill="white"/>
<path d="M20.2937 28.9074C20.2875 29.7299 19.9583 30.517 19.3771 31.0987C18.796 31.6804 18.0094 32.0101 17.1874 32.0166C16.3672 32.0087 15.583 31.6781 15.0047 31.0962C14.4263 30.5143 14.1001 29.728 14.0967 28.9074C14.1071 28.0936 14.4346 27.316 15.0094 26.7402C15.5842 26.1644 16.361 25.8357 17.1743 25.8242C17.9942 25.8272 18.7802 26.1518 19.3634 26.7283C19.9467 27.3048 20.2807 28.0872 20.2937 28.9074Z" fill="white"/>
</g>
<defs>
<clipPath id="clip0_2167_1276">
<rect width="50" height="50" fill="white"/>
</clipPath>
</defs>
</svg>
