<svg width="50" height="50" viewBox="0 0 50 50" fill="none" xmlns="http://www.w3.org/2000/svg">
<g clip-path="url(#clip0_828_83511)">
<path d="M25 0C20.0555 0 15.222 1.46622 11.1108 4.21326C6.99953 6.9603 3.79521 10.8648 1.90302 15.4329C0.010832 20.0011 -0.484251 25.0277 0.480379 29.8773C1.44501 34.7268 3.82603 39.1814 7.32234 42.6777C10.8187 46.174 15.2732 48.555 20.1228 49.5196C24.9723 50.4843 29.9989 49.9892 34.5671 48.097C39.1352 46.2048 43.0397 43.0005 45.7868 38.8893C48.5338 34.778 50 29.9445 50 25C50 18.3696 47.3661 12.0107 42.6777 7.32233C37.9893 2.63392 31.6304 0 25 0ZM17.7303 38.1579H12.2763V20.5888H17.7303V38.1579ZM15 18.1908C14.3723 18.1934 13.758 18.0098 13.2346 17.6633C12.7112 17.3168 12.3023 16.823 12.0596 16.2441C11.8168 15.6653 11.7511 15.0275 11.8708 14.4113C11.9904 13.7951 12.2901 13.2283 12.7319 12.7824C13.1736 12.3365 13.7377 12.0315 14.3527 11.9061C14.9677 11.7807 15.6061 11.8405 16.1872 12.0778C16.7683 12.3152 17.266 12.7195 17.6173 13.2396C17.9687 13.7597 18.1579 14.3723 18.1612 15C18.163 15.8417 17.8314 16.6498 17.239 17.2477C16.6467 17.8456 15.8417 18.1847 15 18.1908ZM38.1579 38.1579H32.7072V29.6053C32.7072 27.5658 32.6678 24.9507 29.8717 24.9507C27.0757 24.9507 26.5822 27.1678 26.5822 29.4572V38.1579H21.1513V20.5888H26.3849V22.9836H26.4605C27.1875 21.602 28.9671 20.1447 31.6217 20.1447C37.1415 20.1447 38.1579 23.7829 38.1579 28.5066V38.1579Z" fill="white"/>
</g>
<defs>
<clipPath id="clip0_828_83511">
<rect width="50" height="50" fill="white"/>
</clipPath>
</defs>
</svg>
