<svg width="36" height="36" viewBox="0 0 36 36" fill="none" xmlns="http://www.w3.org/2000/svg">
<path d="M13.091 18.0004C17.6097 18.0004 21.2729 14.3373 21.2729 9.81856C21.2729 5.29985 17.6097 1.63672 13.091 1.63672C8.57232 1.63672 4.90918 5.29985 4.90918 9.81856C4.90918 14.3373 8.57232 18.0004 13.091 18.0004Z" fill="#EB3609"/>
<path d="M26.1818 29.4549C26.1818 32.1548 23.9726 34.364 21.2728 34.364H4.90908C2.20922 34.364 0 32.1548 0 29.4549C0 24.939 3.66546 21.2731 8.18184 21.2731H18C22.5164 21.2731 26.1818 24.939 26.1818 29.4549ZM31.0909 9.81856C31.0909 14.3345 27.4255 18.0004 22.9091 18.0004C22.353 18.0004 21.7965 17.9509 21.2727 17.8206C23.3018 15.7584 24.5454 12.9275 24.5454 9.81856C24.5454 6.70962 23.3018 3.87877 21.2727 1.81651C21.7965 1.68629 22.353 1.63672 22.9091 1.63672C27.4255 1.63679 31.0909 5.3026 31.0909 9.81856ZM36 29.4549C36 32.1548 33.7908 34.364 31.0909 34.364H27.8182C28.8489 33.0057 29.4546 31.3038 29.4546 29.4549C29.4546 26.2477 28.1291 23.3513 26.0021 21.2731H27.8182C32.3345 21.2731 36 24.939 36 29.4549Z" fill="#EB3609"/>
</svg>
