<svg width="40" height="40" viewBox="0 0 40 40" fill="none" xmlns="http://www.w3.org/2000/svg">
<path d="M5 16.25H2.5V28.75C2.5 29.7446 2.89509 30.6984 3.59835 31.4017C4.30161 32.1049 5.25544 32.5 6.25 32.5H33.75C34.7446 32.5 35.6984 32.1049 36.4016 31.4017C37.1049 30.6984 37.5 29.7446 37.5 28.75V16.25H5ZM8.75 25H12.5C12.8315 25 13.1495 25.1317 13.3839 25.3661C13.6183 25.6005 13.75 25.9185 13.75 26.25C13.75 26.5815 13.6183 26.8995 13.3839 27.1339C13.1495 27.3683 12.8315 27.5 12.5 27.5H8.75C8.41848 27.5 8.10054 27.3683 7.86612 27.1339C7.6317 26.8995 7.5 26.5815 7.5 26.25C7.5 25.9185 7.6317 25.6005 7.86612 25.3661C8.10054 25.1317 8.41848 25 8.75 25ZM37.5 11.25V13.75H2.5V11.25C2.5 10.2554 2.89509 9.30161 3.59835 8.59835C4.30161 7.89509 5.25544 7.5 6.25 7.5H33.75C34.7446 7.5 35.6984 7.89509 36.4016 8.59835C37.1049 9.30161 37.5 10.2554 37.5 11.25Z" fill="#EB3609"/>
</svg>
