<svg width="93" height="74" viewBox="0 0 93 74" fill="none" xmlns="http://www.w3.org/2000/svg">
<g clip-path="url(#clip0_782_20928)">
<path d="M65.1 37C65.1 19.1198 50.5269 4.625 32.55 4.625C14.5731 4.625 0 19.1198 0 37C0 54.8802 14.5731 69.375 32.55 69.375C50.5269 69.375 65.1 54.8802 65.1 37Z" fill="#FB6514" fill-opacity="0.2"/>
<path d="M90.6748 37C90.6748 17.8426 75.0607 2.3125 55.7998 2.3125C36.5389 2.3125 20.9248 17.8426 20.9248 37C20.9248 56.1574 36.5389 71.6875 55.7998 71.6875C75.0607 71.6875 90.6748 56.1574 90.6748 37Z" fill="#EB3609"/>
<path d="M90.6748 37C90.6748 17.8426 75.0607 2.3125 55.7998 2.3125C36.5389 2.3125 20.9248 17.8426 20.9248 37C20.9248 56.1574 36.5389 71.6875 55.7998 71.6875C75.0607 71.6875 90.6748 56.1574 90.6748 37Z" stroke="white" stroke-width="4"/>
<path d="M44.8032 29.073L52.8973 22.5481C58.1293 18.3304 60.7453 16.2216 62.3895 17.2632C64.0337 18.3048 63.18 21.53 61.4726 27.9804L61.3116 28.5886C60.6958 30.9152 60.3879 32.0784 60.9291 33.0073L60.958 33.0556C61.5191 33.9734 62.7151 34.2978 65.1071 34.9466C69.4117 36.1142 71.564 36.698 71.9416 38.2168C71.9479 38.242 71.9537 38.2672 71.9592 38.2925C72.2907 39.8208 70.5927 41.1896 67.1968 43.9271L59.1027 50.4519C53.8706 54.6696 51.2545 56.7784 49.6103 55.7368C47.9661 54.6952 48.8199 51.47 50.5274 45.0195L50.6883 44.4115C51.3042 42.085 51.6121 40.9217 51.0709 39.9928L51.0421 39.9445C50.4809 39.0267 49.2849 38.7023 46.8928 38.0535C42.5883 36.8859 40.436 36.3021 40.0584 34.7833C40.0521 34.7581 40.0463 34.7329 40.0408 34.7076C39.7093 33.1793 41.4073 31.8106 44.8032 29.073Z" fill="white" stroke="white" stroke-width="1.5"/>
</g>
<defs>
<clipPath id="clip0_782_20928">
<rect width="93" height="74" fill="white"/>
</clipPath>
</defs>
</svg>
