<svg width="40" height="40" viewBox="0 0 40 40" fill="none" xmlns="http://www.w3.org/2000/svg">
<path d="M32.4673 4.70053L32.934 5.65053C33.1673 6.11719 33.7507 6.55053 34.2673 6.65053L34.9007 6.75053C36.8007 7.06719 37.2507 8.4672 35.884 9.85053L35.3007 10.4339C34.9173 10.8339 34.7007 11.6005 34.8173 12.1339L34.9007 12.4839C35.4173 14.7839 34.2007 15.6672 32.2007 14.4672L31.7673 14.2172C31.2507 13.9172 30.4173 13.9172 29.9007 14.2172L29.4673 14.4672C27.4507 15.6839 26.234 14.7839 26.7673 12.4839L26.8507 12.1339C26.9673 11.6005 26.7507 10.8339 26.3673 10.4339L25.784 9.83386C24.4173 8.45053 24.8673 7.05053 26.7673 6.73386L27.4007 6.63386C27.9007 6.55053 28.5007 6.10053 28.734 5.63386L29.2007 4.68386C30.1007 2.88386 31.5673 2.88386 32.4673 4.70053Z" fill="#EB3609"/>
<path d="M35.9506 16.8173C35.3507 17.2507 33.6673 18.0507 31.2673 16.8173C31.0007 16.684 30.6673 16.6673 30.4007 16.8173C29.4506 17.3007 28.584 17.5007 27.9007 17.5007C26.834 17.5007 26.084 17.084 25.7173 16.8173C25.1007 16.3673 23.8007 15.084 24.2507 12.3673C24.3007 12.084 24.2173 11.8007 24.034 11.584C22.884 10.2673 22.2507 8.50065 22.7007 7.11732C22.8673 6.56732 22.5173 5.83398 21.9507 5.83398H11.6673C6.66732 5.83398 3.33398 8.33398 3.33398 14.1673V25.834C3.33398 31.6673 6.66732 34.1673 11.6673 34.1673H28.334C33.334 34.1673 36.6673 31.6673 36.6673 25.834V17.1173C36.6673 16.8007 36.2173 16.634 35.9506 16.8173ZM23.9007 20.1507C22.8007 21.034 21.4007 21.4673 20.0007 21.4673C18.6007 21.4673 17.184 21.034 16.1007 20.1507L10.884 15.984C10.3507 15.5507 10.2673 14.7507 10.684 14.2173C11.1173 13.684 11.9007 13.584 12.434 14.0173L17.6507 18.184C18.9173 19.2007 21.0673 19.2007 22.334 18.184C22.8673 17.7507 23.6507 17.834 24.084 18.384C24.534 18.9173 24.4507 19.7173 23.9007 20.1507Z" fill="#EB3609"/>
</svg>
