<svg width="64" height="64" viewBox="0 0 64 64" fill="none" xmlns="http://www.w3.org/2000/svg">
<path d="M59.66 27.3092C59.6491 26.6713 59.5047 26.0427 59.236 25.464C58.9673 24.8852 58.5803 24.3693 58.1 23.9492L52.99 19.5872V14.9992C52.9889 13.9387 52.5672 12.9219 51.8172 12.172C51.0673 11.4221 50.0505 11.0003 48.99 10.9992H42.918L36.68 5.67924C35.3943 4.59602 33.7672 4.00195 32.086 4.00195C30.4048 4.00195 28.7777 4.59602 27.492 5.67924L21.251 10.9992H15.01C13.9494 11.0003 12.9326 11.4221 12.1827 12.172C11.4328 12.9219 11.011 13.9387 11.01 14.9992V19.7292L5.89899 24.0892C5.4147 24.5059 5.025 25.0212 4.75596 25.6007C4.48693 26.1802 4.34477 26.8104 4.33899 27.4492V55.5292C4.36576 56.7308 4.86459 57.8735 5.72754 58.7101C6.5905 59.5467 7.74815 60.0098 8.94999 59.9992H55.05C55.6765 59.9999 56.2967 59.8741 56.8734 59.6292C57.4501 59.3843 57.9714 59.0255 58.406 58.5742C59.2027 57.7601 59.6523 56.6684 59.66 55.5292V27.3092ZM39.57 41.7362L57.61 26.8712C57.638 27.0152 57.587 56.1812 57.46 56.4712L39.57 41.7362ZM56.49 25.2042L52.99 28.0882V22.2182L56.49 25.2042ZM28.79 7.20024C29.7127 6.42444 30.8795 5.99909 32.085 5.99909C33.2905 5.99909 34.4573 6.42444 35.38 7.20024L39.837 10.9992H24.334L28.79 7.20024ZM15.01 12.9992H48.99C49.5203 12.9998 50.0287 13.2107 50.4036 13.5856C50.7786 13.9606 50.9895 14.469 50.99 14.9992V29.7362L34.88 43.0092C34.0613 43.667 33.0427 44.0256 31.9925 44.0256C30.9423 44.0256 29.9236 43.667 29.105 43.0092L13.01 29.7472V14.9992C13.0105 14.469 13.2214 13.9606 13.5964 13.5856C13.9713 13.2107 14.4797 12.9998 15.01 12.9992ZM6.53899 56.4702C6.41199 56.1802 6.36599 27.0782 6.40899 26.8982L24.414 41.7352L6.53899 56.4702ZM11.009 28.0992L7.58699 25.2792L11.01 22.3572L11.009 28.0992ZM8.02999 57.8332L25.987 43.0312L27.832 44.5512C29.0041 45.5141 30.4741 46.0405 31.991 46.0405C33.5079 46.0405 34.9779 45.5141 36.15 44.5512L37.996 43.0312L55.97 57.8332C55.683 57.9362 8.31899 57.9362 8.03099 57.8332H8.02999Z" fill="#EB3609"/>
<path d="M32 34.6286C34.5599 34.6257 37.0141 33.6075 38.8242 31.7975C40.6344 29.9875 41.6528 27.5334 41.656 24.9736C41.126 12.1636 22.873 12.1666 22.344 24.9736C22.3472 27.5334 23.3655 29.9875 25.1757 31.7975C26.9859 33.6075 29.4401 34.6257 32 34.6286ZM32 17.3166C34.0299 17.3189 35.976 18.1265 37.4113 19.5619C38.8466 20.9974 39.6539 22.9436 39.656 24.9736C39.271 35.1166 24.728 35.1136 24.344 24.9736C24.3461 22.9436 25.1534 20.9974 26.5887 19.5619C28.024 18.1265 29.9701 17.3189 32 17.3166Z" fill="#EB3609"/>
<path d="M28.755 27.3749C28.8076 27.5197 28.8927 27.6506 29.0039 27.7573C29.115 27.8641 29.2491 27.9439 29.396 27.9907C29.5428 28.0374 29.6984 28.0499 29.8508 28.027C30.0032 28.0042 30.1483 27.9466 30.275 27.8589L36.128 23.7209C36.3445 23.5677 36.4914 23.3348 36.5362 23.0734C36.581 22.812 36.5201 22.5434 36.367 22.3269C36.2138 22.1103 35.9809 21.9635 35.7195 21.9187C35.4581 21.8739 35.1895 21.9347 34.973 22.0879L30.203 25.4619L29.393 23.1599C29.3494 23.036 29.2818 22.9219 29.1941 22.8241C29.1064 22.7263 29.0003 22.6468 28.8819 22.59C28.7634 22.5332 28.635 22.5003 28.5038 22.4932C28.3727 22.486 28.2414 22.5048 28.1175 22.5484C27.9936 22.592 27.8795 22.6596 27.7817 22.7473C27.6839 22.835 27.6043 22.9411 27.5476 23.0595C27.4908 23.1779 27.4579 23.3064 27.4507 23.4376C27.4436 23.5687 27.4624 23.7 27.506 23.8239L28.755 27.3749ZM31.935 53.5799H16.967C16.7018 53.5799 16.4474 53.6852 16.2599 53.8728C16.0723 54.0603 15.967 54.3147 15.967 54.5799C15.967 54.8451 16.0723 55.0995 16.2599 55.287C16.4474 55.4745 16.7018 55.5799 16.967 55.5799H31.935C32.2002 55.5799 32.4545 55.4745 32.6421 55.287C32.8296 55.0995 32.935 54.8451 32.935 54.5799C32.935 54.3147 32.8296 54.0603 32.6421 53.8728C32.4545 53.6852 32.2002 53.5799 31.935 53.5799ZM39.932 53.5799H36.704C36.4388 53.5799 36.1844 53.6852 35.9969 53.8728C35.8093 54.0603 35.704 54.3147 35.704 54.5799C35.704 54.8451 35.8093 55.0995 35.9969 55.287C36.1844 55.4745 36.4388 55.5799 36.704 55.5799H39.932C40.1972 55.5799 40.4516 55.4745 40.6391 55.287C40.8266 55.0995 40.932 54.8451 40.932 54.5799C40.932 54.3147 40.8266 54.0603 40.6391 53.8728C40.4516 53.6852 40.1972 53.5799 39.932 53.5799Z" fill="#EB3609"/>
</svg>
