<svg width="95" height="73" viewBox="0 0 95 73" fill="none" xmlns="http://www.w3.org/2000/svg">
<rect x="3" y="4" width="90" height="65" rx="32.5" fill="#6D61FF"/>
<rect x="2" y="3" width="92" height="67" rx="33.5" stroke="#6D61FF" stroke-opacity="0.5" stroke-width="2"/>
<path d="M29 37C29 29.9289 29 26.3934 31.1949 24.1967C33.3899 22 36.9225 22 43.9879 22H51.4819C58.5472 22 62.0799 22 64.2748 24.1967C66.4698 26.3934 66.4698 29.9289 66.4698 37C66.4698 44.0711 66.4698 47.6066 64.2748 49.8033C62.0799 52 58.5472 52 51.4819 52H43.9879C36.9225 52 33.3899 52 31.1949 49.8033C29 47.6066 29 44.0711 29 37Z" fill="white" stroke="white" stroke-width="1.5"/>
<path d="M36.4941 29.502L40.5388 32.8752C43.9797 35.745 45.7002 37.1798 47.7351 37.1798C49.77 37.1798 51.4904 35.745 54.9313 32.8752L58.976 29.502" stroke="#6D61FF" stroke-width="1.5" stroke-linecap="round"/>
</svg>
