<svg width="93" height="74" viewBox="0 0 93 74" fill="none" xmlns="http://www.w3.org/2000/svg">
<g clip-path="url(#clip0_782_20118)">
<path d="M65.1 37C65.1 19.1198 50.5269 4.625 32.55 4.625C14.5731 4.625 0 19.1198 0 37C0 54.8802 14.5731 69.375 32.55 69.375C50.5269 69.375 65.1 54.8802 65.1 37Z" fill="#FB6514" fill-opacity="0.2"/>
<path d="M90.6748 37C90.6748 17.8426 75.0607 2.3125 55.7998 2.3125C36.5389 2.3125 20.9248 17.8426 20.9248 37C20.9248 56.1574 36.5389 71.6875 55.7998 71.6875C75.0607 71.6875 90.6748 56.1574 90.6748 37Z" fill="#EB3609"/>
<path d="M90.6748 37C90.6748 17.8426 75.0607 2.3125 55.7998 2.3125C36.5389 2.3125 20.9248 17.8426 20.9248 37C20.9248 56.1574 36.5389 71.6875 55.7998 71.6875C75.0607 71.6875 90.6748 56.1574 90.6748 37Z" stroke="white" stroke-width="4"/>
<circle cx="56.125" cy="37.125" r="17.125" fill="white" stroke="white" stroke-width="1.5"/>
<path d="M59.5502 28.5617C59.5502 30.4533 58.0168 31.9867 56.1252 31.9867C54.2336 31.9867 52.7002 30.4533 52.7002 28.5617C52.7002 26.6701 54.2336 25.1367 56.1252 25.1367C58.0168 25.1367 59.5502 26.6701 59.5502 28.5617Z" stroke="#EB3609" stroke-width="1.5"/>
<path d="M66.4001 33.6992C66.4001 33.6992 60.3425 36.268 56.1251 36.268C51.9077 36.268 45.8501 33.6992 45.8501 33.6992" stroke="#EB3609" stroke-width="1.5" stroke-linecap="round"/>
<path d="M56.1248 37.125V39.6119M56.1248 39.6119C56.1248 40.5971 56.408 41.5614 56.9408 42.3901L61.2623 49.1125M56.1248 39.6119C56.1248 40.5971 55.8416 41.5614 55.3089 42.3901L50.9873 49.1125" stroke="#EB3609" stroke-width="1.5" stroke-linecap="round"/>
</g>
<defs>
<clipPath id="clip0_782_20118">
<rect width="93" height="74" fill="white"/>
</clipPath>
</defs>
</svg>
