<svg width="95" height="73" viewBox="0 0 95 73" fill="none" xmlns="http://www.w3.org/2000/svg">
<rect x="3" y="4" width="90" height="65" rx="32.5" fill="#6D61FF"/>
<rect x="2" y="3" width="92" height="67" rx="33.5" stroke="#6D61FF" stroke-opacity="0.5" stroke-width="2"/>
<path d="M41.2082 43.536C41.9635 44.3043 42.3865 45.3373 42.3865 46.4134C42.3865 47.4894 41.9635 48.5224 41.2082 49.2908C39.1197 51.3873 34.6816 52.0312 34.1869 52.0312H34.0082C33.8117 52.0328 33.6172 51.9925 33.4376 51.9128C33.2581 51.8331 33.0979 51.7159 32.9676 51.5692C32.8374 51.4224 32.7403 51.2495 32.6827 51.0621C32.6252 50.8747 32.6087 50.6772 32.6342 50.4829C32.703 49.9897 33.3213 45.5638 35.3823 43.4811C36.1625 42.7186 37.2142 42.296 38.3067 42.3063C39.399 42.3165 40.4426 42.7588 41.2082 43.536ZM57.8891 38.5347C55.4026 40.9675 52.6351 43.0971 49.6448 44.8787C49.044 45.2123 48.3675 45.3868 47.6799 45.3857C47.1342 45.3888 46.5932 45.2839 46.0884 45.0769C45.5836 44.8699 45.1251 44.5651 44.7395 44.1799L40.6174 40.0693C39.9846 39.4399 39.574 38.6224 39.4477 37.7402C39.3212 36.8579 39.4859 35.9585 39.9167 35.1776C41.7032 32.1955 43.8387 29.4358 46.2784 26.9563C48.1926 24.9359 50.6038 23.4504 53.2723 22.6475C55.9408 21.8446 58.7737 21.7523 61.489 22.3799C61.7065 22.445 61.9046 22.563 62.0653 22.7232C62.2259 22.8834 62.3442 23.0809 62.4096 23.2979C63.06 26.01 62.9849 28.8449 62.1915 31.5188C61.3982 34.1928 59.9146 36.6121 57.8891 38.5347ZM56.5149 28.2306C56.1313 27.8458 55.6417 27.5831 55.1082 27.4761C54.5747 27.3691 54.0213 27.4224 53.5182 27.6293C53.0151 27.8362 52.5849 28.1875 52.2823 28.6385C51.9795 29.0895 51.8179 29.6199 51.8179 30.1626C51.8179 30.7053 51.9795 31.2358 52.2823 31.6869C52.5849 32.1379 53.0151 32.4892 53.5182 32.696C54.0213 32.903 54.5747 32.9563 55.1082 32.8492C55.6417 32.7422 56.1313 32.4796 56.5149 32.0946C57.0323 31.5867 57.327 30.8952 57.3347 30.1712C57.3425 29.4472 57.0626 28.7495 56.5562 28.2306H56.5149ZM58.1226 40.1652C55.8977 42.242 53.4774 44.1003 50.8952 45.7146L53.6433 48.455C53.7716 48.582 53.9239 48.6825 54.0912 48.7506C54.2587 48.8188 54.4379 48.8534 54.6188 48.8523C54.9793 48.8508 55.3247 48.7082 55.5807 48.455L56.5149 47.5233C57.1608 46.8848 57.6731 46.1249 58.0222 45.2876C58.3712 44.4503 58.5501 43.5521 58.5486 42.6453C58.569 41.8024 58.4387 40.9625 58.1638 40.1652H58.1226ZM37.1686 28.1895L36.2342 29.1213C35.9783 29.378 35.8346 29.7253 35.8346 30.0873C35.8346 30.4492 35.9783 30.7966 36.2342 31.0533L38.9823 33.7938C40.5735 31.222 42.4145 28.8126 44.4784 26.6002C43.2363 26.1323 41.8848 26.0334 40.5875 26.3155C39.2902 26.5976 38.1026 27.2485 37.1686 28.1895Z" fill="white"/>
</svg>
