<svg width="75" height="60" viewBox="0 0 75 60" fill="none" xmlns="http://www.w3.org/2000/svg">
<g clip-path="url(#clip0_782_20909)">
<path d="M52.4998 29.9994C52.4998 15.3426 40.6181 3.46094 25.9613 3.46094C11.3045 3.46094 -0.577148 15.3426 -0.577148 29.9994C-0.577148 44.6562 11.3045 56.5379 25.9613 56.5379C40.6181 56.5379 52.4998 44.6562 52.4998 29.9994Z" fill="#FB6514" fill-opacity="0.2"/>
<path d="M73.125 30C73.125 14.467 60.533 1.875 45 1.875C29.467 1.875 16.875 14.467 16.875 30C16.875 45.533 29.467 58.125 45 58.125C60.533 58.125 73.125 45.533 73.125 30Z" fill="#EB3609"/>
<path d="M72.1156 30.0009C72.1156 14.7069 59.7173 2.30859 44.4233 2.30859C29.1292 2.30859 16.731 14.7069 16.731 30.0009C16.731 45.2949 29.1292 57.6932 44.4233 57.6932C59.7173 57.6932 72.1156 45.2949 72.1156 30.0009Z" stroke="white" stroke-width="4"/>
<path d="M34.9388 33.801C33.9581 32.527 33.4678 31.8899 33.4678 29.9983C33.4678 28.1068 33.9581 27.4697 34.9388 26.1957C36.897 23.6517 40.181 20.7676 45.0062 20.7676C49.8315 20.7676 53.1155 23.6517 55.0737 26.1957C56.0544 27.4697 56.5447 28.1068 56.5447 29.9983C56.5447 31.8899 56.0544 32.527 55.0737 33.801C53.1155 36.345 49.8315 39.2291 45.0062 39.2291C40.181 39.2291 36.897 36.345 34.9388 33.801Z" fill="white" stroke="white" stroke-width="1.5"/>
<path d="M48.468 29.9986C48.468 31.9104 46.9182 33.4602 45.0065 33.4602C43.0947 33.4602 41.5449 31.9104 41.5449 29.9986C41.5449 28.0869 43.0947 26.5371 45.0065 26.5371C46.9182 26.5371 48.468 28.0869 48.468 29.9986Z" stroke="#EB3609" stroke-width="1.5"/>
</g>
<defs>
<clipPath id="clip0_782_20909">
<rect width="75" height="60" fill="white"/>
</clipPath>
</defs>
</svg>
