<svg width="125" height="100" viewBox="0 0 125 100" fill="none" xmlns="http://www.w3.org/2000/svg">
<g clip-path="url(#clip0_2045_900)">
<path opacity="0.2" d="M87.4996 49.9983C87.4996 25.5704 67.6968 5.76758 43.2689 5.76758C18.8409 5.76758 -0.961914 25.5704 -0.961914 49.9983C-0.961914 74.4263 18.8409 94.2291 43.2689 94.2291C67.6968 94.2291 87.4996 74.4263 87.4996 49.9983Z" fill="#EB3609"/>
<path d="M121.449 50.7151C121.449 24.6788 100.462 3.57227 74.5737 3.57227C48.6854 3.57227 27.6987 24.6788 27.6987 50.7151C27.6987 76.7514 48.6854 97.858 74.5737 97.858C100.462 97.858 121.449 76.7514 121.449 50.7151Z" fill="#EB3609"/>
<path d="M120.192 50.0015C120.192 24.5114 99.5287 3.84766 74.0386 3.84766C48.5485 3.84766 27.8848 24.5114 27.8848 50.0015C27.8848 75.4916 48.5485 96.1554 74.0386 96.1554C99.5287 96.1554 120.192 75.4916 120.192 50.0015Z" stroke="white" stroke-width="4"/>
<g clip-path="url(#clip1_2045_900)">
<path d="M86.7229 31.9427C81.3002 25.4585 75.9473 21.244 75.7224 21.0681C74.5005 20.1123 72.7093 20.9857 72.7093 22.5362V30.7344C72.7093 34.9677 67.107 36.4575 65.0075 32.7781C64.3546 31.6369 62.7672 31.5167 61.9454 32.5206C56.3035 39.4059 51.27 48.0873 51.27 57.0255C51.27 69.8751 61.724 80.329 74.5736 80.329C87.4232 80.329 97.8771 69.8751 97.8771 57.0255C97.8771 47.856 92.5827 38.9503 86.7229 31.9427ZM64.32 50.5005C64.32 48.4439 65.9932 46.7719 68.0486 46.7719C70.104 46.7719 71.7772 48.4439 71.7772 50.5005C71.7772 52.557 70.104 54.229 68.0486 54.229C65.9932 54.229 64.32 52.557 64.32 50.5005ZM69.5202 66.559C68.8915 67.3693 67.7198 67.5202 66.9044 66.8864C66.0911 66.2537 65.9454 65.0827 66.577 64.2706L79.627 47.492C80.2597 46.6787 81.4307 46.533 82.2428 47.1646C83.0561 47.7973 83.2017 48.9683 82.5702 49.7804L69.5202 66.559ZM81.0986 67.279C79.0432 67.279 77.37 65.607 77.37 63.5505C77.37 61.4939 79.0432 59.8219 81.0986 59.8219C83.154 59.8219 84.8271 61.4939 84.8271 63.5505C84.8271 65.607 83.154 67.279 81.0986 67.279Z" fill="white"/>
</g>
</g>
<defs>
<clipPath id="clip0_2045_900">
<rect width="125" height="100" fill="white"/>
</clipPath>
<clipPath id="clip1_2045_900">
<rect width="59.6591" height="59.6591" fill="white" transform="translate(44.7441 20.6699)"/>
</clipPath>
</defs>
</svg>
