<svg width="88" height="70" viewBox="0 0 88 70" fill="none" xmlns="http://www.w3.org/2000/svg">
<g clip-path="url(#clip0_1372_13268)">
<path opacity="0.2" d="M61.5997 34.9986C61.5997 17.8991 47.6585 4.03711 30.4612 4.03711C13.2639 4.03711 -0.677246 17.8991 -0.677246 34.9986C-0.677246 52.0982 13.2639 65.9602 30.4612 65.9602C47.6585 65.9602 61.5997 52.0982 61.5997 34.9986Z" fill="#27C840"/>
<path d="M85.8 35C85.8 16.8782 71.0254 2.1875 52.8 2.1875C34.5747 2.1875 19.8 16.8782 19.8 35C19.8 53.1218 34.5747 67.8125 52.8 67.8125C71.0254 67.8125 85.8 53.1218 85.8 35Z" fill="#27C840"/>
<path d="M84.6156 35.0011C84.6156 17.158 70.0683 2.69336 52.1233 2.69336C34.1783 2.69336 19.631 17.158 19.631 35.0011C19.631 52.8441 34.1783 67.3087 52.1233 67.3087C70.0683 67.3087 84.6156 52.8441 84.6156 35.0011Z" stroke="white" stroke-width="4"/>
<path d="M40.9949 39.4342C39.8443 37.9478 39.2689 37.2046 39.2689 34.9977C39.2689 32.7909 39.8443 32.0477 40.9949 30.5613C43.2925 27.5933 47.1458 24.2285 52.8074 24.2285C58.469 24.2285 62.3223 27.5933 64.6198 30.5613C65.7705 32.0477 66.3458 32.7909 66.3458 34.9977C66.3458 37.2046 65.7705 37.9478 64.6198 39.4342C62.3223 42.4022 58.469 45.767 52.8074 45.767C47.1458 45.767 43.2925 42.4022 40.9949 39.4342Z" fill="white" stroke="white" stroke-width="1.5"/>
<path d="M56.8689 34.9974C56.8689 37.2278 55.0505 39.0359 52.8074 39.0359C50.5643 39.0359 48.7458 37.2278 48.7458 34.9974C48.7458 32.7671 50.5643 30.959 52.8074 30.959C55.0505 30.959 56.8689 32.7671 56.8689 34.9974Z" stroke="#27C840" stroke-width="1.5"/>
</g>
<defs>
<clipPath id="clip0_1372_13268">
<rect width="88" height="70" fill="white"/>
</clipPath>
</defs>
</svg>
