<svg width="63" height="50" viewBox="0 0 63 50" fill="none" xmlns="http://www.w3.org/2000/svg">
<g clip-path="url(#clip0_1612_12689)">
<path d="M44.1 25C44.1 12.9188 34.2279 3.125 22.05 3.125C9.87212 3.125 0 12.9188 0 25C0 37.0812 9.87212 46.875 22.05 46.875C34.2279 46.875 44.1 37.0812 44.1 25Z" fill="#FB6514" fill-opacity="0.2"/>
<path d="M61.425 25C61.425 12.0558 50.8478 1.5625 37.8 1.5625C24.7523 1.5625 14.175 12.0558 14.175 25C14.175 37.9442 24.7523 48.4375 37.8 48.4375C50.8478 48.4375 61.425 37.9442 61.425 25Z" fill="#EB3609"/>
<path d="M61.425 25C61.425 12.0558 50.8478 1.5625 37.8 1.5625C24.7523 1.5625 14.175 12.0558 14.175 25C14.175 37.9442 24.7523 48.4375 37.8 48.4375C50.8478 48.4375 61.425 37.9442 61.425 25Z" stroke="white" stroke-width="4"/>
<circle cx="38" cy="19" r="4" fill="white" stroke="white" stroke-width="1.84615"/>
<ellipse cx="38" cy="30" rx="7" ry="4" fill="white" stroke="white" stroke-width="1.84615"/>
</g>
<defs>
<clipPath id="clip0_1612_12689">
<rect width="63" height="50" fill="white"/>
</clipPath>
</defs>
</svg>
