<svg width="75" height="60" viewBox="0 0 75 60" fill="none" xmlns="http://www.w3.org/2000/svg">
<g clip-path="url(#clip0_1080_12720)">
<path d="M53.0769 30.5385C53.0769 15.8817 41.1952 4 26.5385 4C11.8817 4 0 15.8817 0 30.5385C0 45.1952 11.8817 57.0769 26.5385 57.0769C41.1952 57.0769 53.0769 45.1952 53.0769 30.5385Z" fill="#FB6514" fill-opacity="0.2"/>
<path d="M73.125 30C73.125 14.467 60.533 1.875 45 1.875C29.467 1.875 16.875 14.467 16.875 30C16.875 45.533 29.467 58.125 45 58.125C60.533 58.125 73.125 45.533 73.125 30Z" fill="#EB3609"/>
<path d="M72.1156 30.0009C72.1156 14.7069 59.7173 2.30859 44.4233 2.30859C29.1292 2.30859 16.731 14.7069 16.731 30.0009C16.731 45.2949 29.1292 57.6932 44.4233 57.6932C59.7173 57.6932 72.1156 45.2949 72.1156 30.0009Z" stroke="white" stroke-width="4"/>
<path d="M34.2188 24.1715L32.43 25.5309C32.2821 25.6448 32.1588 25.7875 32.0677 25.9504L34.2188 27.2573V24.1715ZM33.2812 42.1246H56.7188C56.7773 42.1232 56.8357 42.1181 56.8936 42.1092L31.875 26.932V40.7184C31.875 41.0913 32.0232 41.449 32.2869 41.7127C32.5506 41.9765 32.9083 42.1246 33.2812 42.1246ZM35.1562 19.1559V27.8278L44.843 33.7026L54.8438 27.5737V19.1559C54.8438 19.0316 54.7944 18.9123 54.7065 18.8244C54.6185 18.7365 54.4993 18.6871 54.375 18.6871H35.625C35.5007 18.6871 35.3815 18.7365 35.2935 18.8244C35.2056 18.9123 35.1562 19.0316 35.1562 19.1559ZM58.125 26.662L45.7444 34.2496L57.8288 41.5809C58.0216 41.3348 58.126 41.031 58.125 40.7184V26.662ZM44.1483 16.6378L42.6816 17.7496H47.3184L45.8513 16.6373C45.6056 16.453 45.3068 16.3534 44.9997 16.3535C44.6926 16.3536 44.3938 16.4533 44.1483 16.6378ZM55.7812 24.1715V26.9976L57.8006 25.7601C57.7321 25.6729 57.6534 25.5942 57.5662 25.5257L55.7812 24.1715Z" fill="white"/>
</g>
<defs>
<clipPath id="clip0_1080_12720">
<rect width="75" height="60" fill="white"/>
</clipPath>
</defs>
</svg>
