<svg width="62" height="50" viewBox="0 0 62 50" fill="none" xmlns="http://www.w3.org/2000/svg">
<g clip-path="url(#clip0_1402_1387)">
<path d="M43.4 25C43.4 12.9188 33.6846 3.125 21.7 3.125C9.71542 3.125 0 12.9188 0 25C0 37.0812 9.71542 46.875 21.7 46.875C33.6846 46.875 43.4 37.0812 43.4 25Z" fill="#FB6514" fill-opacity="0.2"/>
<path d="M60.45 25C60.45 12.0558 50.0406 1.5625 37.2 1.5625C24.3593 1.5625 13.95 12.0558 13.95 25C13.95 37.9442 24.3593 48.4375 37.2 48.4375C50.0406 48.4375 60.45 37.9442 60.45 25Z" fill="#EB3609"/>
<path d="M60.45 25C60.45 12.0558 50.0406 1.5625 37.2 1.5625C24.3593 1.5625 13.95 12.0558 13.95 25C13.95 37.9442 24.3593 48.4375 37.2 48.4375C50.0406 48.4375 60.45 37.9442 60.45 25Z" stroke="white" stroke-width="4"/>
<path d="M37 12C34.4288 12 31.9154 12.7624 29.7776 14.1909C27.6398 15.6194 25.9735 17.6497 24.9896 20.0251C24.0056 22.4006 23.7482 25.0144 24.2498 27.5362C24.7514 30.0579 25.9895 32.3743 27.8076 34.1924C29.6257 36.0105 31.9421 37.2486 34.4638 37.7502C36.9856 38.2518 39.5994 37.9944 41.9749 37.0104C44.3503 36.0265 46.3806 34.3602 47.8091 32.2224C49.2376 30.0846 50 27.5712 50 25C49.9953 21.5536 48.6241 18.2498 46.1872 15.8129C43.7502 13.3759 40.4464 12.0047 37 12ZM41.0883 29.0883C40.8361 29.3401 40.4943 29.4816 40.1379 29.4816C39.7816 29.4816 39.4397 29.3401 39.1876 29.0883L36.1035 25.9503C35.8512 25.6984 35.7093 25.3565 35.709 25V19.6207C35.709 19.264 35.8507 18.922 36.1029 18.6698C36.3551 18.4175 36.6971 18.2759 37.0538 18.2759C37.4105 18.2759 37.7525 18.4175 38.0047 18.6698C38.2569 18.922 38.3986 19.264 38.3986 19.6207V24.4441L41.1421 27.1876C41.3869 27.4468 41.5188 27.7926 41.5087 28.1491C41.4986 28.5055 41.3474 28.8433 41.0883 29.0883Z" fill="white"/>
</g>
<defs>
<clipPath id="clip0_1402_1387">
<rect width="62" height="50" fill="white"/>
</clipPath>
</defs>
</svg>
