<svg width="62" height="50" viewBox="0 0 62 50" fill="none" xmlns="http://www.w3.org/2000/svg">
<g clip-path="url(#clip0_1402_1814)">
<path d="M43.4 25C43.4 12.9188 33.6846 3.125 21.7 3.125C9.71542 3.125 0 12.9188 0 25C0 37.0812 9.71542 46.875 21.7 46.875C33.6846 46.875 43.4 37.0812 43.4 25Z" fill="#FB6514" fill-opacity="0.2"/>
<path d="M60.45 25C60.45 12.0558 50.0406 1.5625 37.2 1.5625C24.3593 1.5625 13.95 12.0558 13.95 25C13.95 37.9442 24.3593 48.4375 37.2 48.4375C50.0406 48.4375 60.45 37.9442 60.45 25Z" fill="#EB3609"/>
<path d="M60.45 25C60.45 12.0558 50.0406 1.5625 37.2 1.5625C24.3593 1.5625 13.95 12.0558 13.95 25C13.95 37.9442 24.3593 48.4375 37.2 48.4375C50.0406 48.4375 60.45 37.9442 60.45 25Z" stroke="white" stroke-width="4"/>
<g clip-path="url(#clip1_1402_1814)">
<path d="M48.2001 34.5998V22.9718C48.199 22.8681 48.1843 22.765 48.1565 22.665L39.9045 29.1998L47.8957 35.531C48.0929 35.2606 48.1995 34.9346 48.2001 34.5998ZM46.2001 23.1934L47.7045 22.0022L46.2001 20.811V23.1934ZM46.6001 36.1998C46.8294 36.1991 47.0558 36.1484 47.2637 36.0514L37.6277 28.4174C37.4481 28.2778 37.2271 28.202 36.9997 28.202C36.7722 28.202 36.5512 28.2778 36.3717 28.4174L26.7364 36.0514C26.9443 36.1484 27.1707 36.1991 27.4 36.1998H46.6001ZM37.6277 14.0162C37.4482 13.8766 37.2273 13.8008 36.9999 13.8008C36.7724 13.8008 36.5515 13.8766 36.3721 14.0162L34.628 15.3998H39.3721L37.6277 14.0162ZM25.8 22.9718V34.5998C25.8006 34.9346 25.9072 35.2606 26.1044 35.531L34.0957 29.1998L25.8448 22.6618C25.8164 22.7628 25.8013 22.867 25.8 22.9718Z" fill="white"/>
<path d="M28.6001 16.5992V23.8232L34.7401 28.6888L35.8753 27.7896C36.1952 27.5361 36.5914 27.3981 36.9997 27.3981C37.4079 27.3981 37.8041 27.5361 38.1241 27.7896L39.2601 28.6896L45.4001 23.8264V16.5992C45.4001 16.4931 45.3579 16.3914 45.2829 16.3164C45.2079 16.2414 45.1062 16.1992 45.0001 16.1992H29.0001C28.894 16.1992 28.7922 16.2414 28.7172 16.3164C28.6422 16.3914 28.6001 16.4931 28.6001 16.5992ZM40.6001 26.1992H33.4001C33.294 26.1992 33.1922 26.1571 33.1172 26.0821C33.0422 26.007 33.0001 25.9053 33.0001 25.7992C33.0001 25.6931 33.0422 25.5914 33.1172 25.5164C33.1922 25.4414 33.294 25.3992 33.4001 25.3992H40.6001C40.7062 25.3992 40.8079 25.4414 40.8829 25.5164C40.9579 25.5914 41.0001 25.6931 41.0001 25.7992C41.0001 25.9053 40.9579 26.007 40.8829 26.0821C40.8079 26.1571 40.7062 26.1992 40.6001 26.1992ZM30.6001 18.1992H43.4001C43.5062 18.1992 43.6079 18.2414 43.6829 18.3164C43.7579 18.3914 43.8001 18.4931 43.8001 18.5992C43.8001 18.7053 43.7579 18.807 43.6829 18.8821C43.6079 18.9571 43.5062 18.9992 43.4001 18.9992H30.6001C30.494 18.9992 30.3922 18.9571 30.3172 18.8821C30.2422 18.807 30.2001 18.7053 30.2001 18.5992C30.2001 18.4931 30.2422 18.3914 30.3172 18.3164C30.3922 18.2414 30.494 18.1992 30.6001 18.1992ZM30.6001 20.5992H43.4001C43.5062 20.5992 43.6079 20.6414 43.6829 20.7164C43.7579 20.7914 43.8001 20.8931 43.8001 20.9992C43.8001 21.1053 43.7579 21.207 43.6829 21.2821C43.6079 21.3571 43.5062 21.3992 43.4001 21.3992H30.6001C30.494 21.3992 30.3922 21.3571 30.3172 21.2821C30.2422 21.207 30.2001 21.1053 30.2001 20.9992C30.2001 20.8931 30.2422 20.7914 30.3172 20.7164C30.3922 20.6414 30.494 20.5992 30.6001 20.5992ZM30.6001 22.9992H43.4001C43.5062 22.9992 43.6079 23.0414 43.6829 23.1164C43.7579 23.1914 43.8001 23.2931 43.8001 23.3992C43.8001 23.5053 43.7579 23.607 43.6829 23.6821C43.6079 23.7571 43.5062 23.7992 43.4001 23.7992H30.6001C30.494 23.7992 30.3922 23.7571 30.3172 23.6821C30.2422 23.607 30.2001 23.5053 30.2001 23.3992C30.2001 23.2931 30.2422 23.1914 30.3172 23.1164C30.3922 23.0414 30.494 22.9992 30.6001 22.9992ZM26.2985 21.9996L27.8001 23.1896V20.8104L26.2985 21.9996Z" fill="white"/>
</g>
</g>
<defs>
<clipPath id="clip0_1402_1814">
<rect width="62" height="50" fill="white"/>
</clipPath>
<clipPath id="clip1_1402_1814">
<rect width="24" height="24" fill="white" transform="translate(25 13)"/>
</clipPath>
</defs>
</svg>
