<svg width="75" height="60" viewBox="0 0 75 60" fill="none" xmlns="http://www.w3.org/2000/svg">
<g clip-path="url(#clip0_1349_9499)">
<path d="M52.4988 29.9994C52.4988 15.3426 40.6171 3.46094 25.9603 3.46094C11.3035 3.46094 -0.578125 15.3426 -0.578125 29.9994C-0.578125 44.6562 11.3035 56.5379 25.9603 56.5379C40.6171 56.5379 52.4988 44.6562 52.4988 29.9994Z" fill="#FB6514" fill-opacity="0.2"/>
<path d="M73.125 30C73.125 14.467 60.533 1.875 45 1.875C29.467 1.875 16.875 14.467 16.875 30C16.875 45.533 29.467 58.125 45 58.125C60.533 58.125 73.125 45.533 73.125 30Z" fill="#EB3609"/>
<path d="M72.1151 30.0009C72.1151 14.7069 59.7168 2.30859 44.4228 2.30859C29.1287 2.30859 16.7305 14.7069 16.7305 30.0009C16.7305 45.2949 29.1287 57.6932 44.4228 57.6932C59.7168 57.6932 72.1151 45.2949 72.1151 30.0009Z" stroke="white" stroke-width="4"/>
<path d="M44.4999 13C35.133 13 27.5 20.633 27.5 29.9999C27.5 39.367 35.133 47 44.4999 47C53.867 47 61.5 39.367 61.5 29.9999C61.5 20.633 53.867 13 44.4999 13ZM52.626 26.09L42.987 35.729C42.749 35.9669 42.426 36.103 42.086 36.103C41.7459 36.103 41.423 35.9669 41.1849 35.729L36.374 30.9179C35.8809 30.425 35.8809 29.609 36.374 29.116C36.867 28.6229 37.683 28.6229 38.1759 29.116L42.086 33.026L50.8239 24.2879C51.317 23.795 52.133 23.795 52.626 24.2879C53.1189 24.781 53.1189 25.58 52.626 26.09Z" fill="white"/>
</g>
<defs>
<clipPath id="clip0_1349_9499">
<rect width="75" height="60" fill="white"/>
</clipPath>
</defs>
</svg>
