<svg width="93" height="74" viewBox="0 0 93 74" fill="none" xmlns="http://www.w3.org/2000/svg">
<g clip-path="url(#clip0_798_21783)">
<path d="M65.1 37C65.1 19.1198 50.5269 4.625 32.55 4.625C14.5731 4.625 0 19.1198 0 37C0 54.8802 14.5731 69.375 32.55 69.375C50.5269 69.375 65.1 54.8802 65.1 37Z" fill="#FB6514" fill-opacity="0.2"/>
<path d="M90.6748 37C90.6748 17.8426 75.0607 2.3125 55.7998 2.3125C36.5389 2.3125 20.9248 17.8426 20.9248 37C20.9248 56.1574 36.5389 71.6875 55.7998 71.6875C75.0607 71.6875 90.6748 56.1574 90.6748 37Z" fill="#EB3609"/>
<path d="M90.6748 37C90.6748 17.8426 75.0607 2.3125 55.7998 2.3125C36.5389 2.3125 20.9248 17.8426 20.9248 37C20.9248 56.1574 36.5389 71.6875 55.7998 71.6875C75.0607 71.6875 90.6748 56.1574 90.6748 37Z" stroke="white" stroke-width="4"/>
<path d="M48.1111 43.536C48.8663 44.3043 49.2894 45.3373 49.2894 46.4134C49.2894 47.4894 48.8663 48.5224 48.1111 49.2908C46.0225 51.3873 41.5844 52.0312 41.0898 52.0312H40.9111C40.7146 52.0328 40.52 51.9925 40.3405 51.9128C40.161 51.8331 40.0007 51.7159 39.8704 51.5692C39.7402 51.4224 39.6431 51.2495 39.5855 51.0621C39.528 50.8747 39.5115 50.6772 39.5371 50.4829C39.6058 49.9897 40.2241 45.5638 42.2852 43.4811C43.0653 42.7186 44.117 42.296 45.2095 42.3063C46.3019 42.3165 47.3455 42.7588 48.1111 43.536ZM64.7919 38.5347C62.3054 40.9675 59.5379 43.0971 56.5477 44.8787C55.9469 45.2123 55.2703 45.3868 54.5828 45.3857C54.037 45.3888 53.4961 45.2839 52.9912 45.0769C52.4865 44.8699 52.028 44.5651 51.6424 44.1799L47.5203 40.0693C46.8874 39.4399 46.4768 38.6224 46.3505 37.7402C46.2241 36.8579 46.3887 35.9585 46.8195 35.1776C48.606 32.1955 50.7416 29.4358 53.1812 26.9563C55.0954 24.9359 57.5067 23.4504 60.1751 22.6475C62.8437 21.8446 65.6765 21.7523 68.3918 22.3799C68.6094 22.445 68.8074 22.563 68.9681 22.7232C69.1287 22.8834 69.2471 23.0809 69.3124 23.2979C69.9629 26.01 69.8877 28.8449 69.0943 31.5188C68.301 34.1928 66.8174 36.6121 64.7919 38.5347ZM63.4178 28.2306C63.0341 27.8458 62.5445 27.5831 62.011 27.4761C61.4775 27.3691 60.9241 27.4224 60.421 27.6293C59.9179 27.8362 59.4878 28.1875 59.1851 28.6385C58.8823 29.0895 58.7207 29.6199 58.7207 30.1626C58.7207 30.7053 58.8823 31.2358 59.1851 31.6869C59.4878 32.1379 59.9179 32.4892 60.421 32.696C60.9241 32.903 61.4775 32.9563 62.011 32.8492C62.5445 32.7422 63.0341 32.4796 63.4178 32.0946C63.9351 31.5867 64.2298 30.8952 64.2376 30.1712C64.2453 29.4472 63.9654 28.7495 63.459 28.2306H63.4178ZM65.0254 40.1652C62.8005 42.242 60.3802 44.1003 57.798 45.7146L60.5461 48.455C60.6744 48.582 60.8267 48.6825 60.9941 48.7506C61.1615 48.8188 61.3407 48.8534 61.5216 48.8523C61.8821 48.8508 62.2275 48.7082 62.4835 48.455L63.4178 47.5233C64.0636 46.8848 64.5759 46.1249 64.925 45.2876C65.2741 44.4503 65.453 43.5521 65.4514 42.6453C65.4718 41.8024 65.3416 40.9625 65.0666 40.1652H65.0254ZM44.0714 28.1895L43.137 29.1213C42.8811 29.378 42.7375 29.7253 42.7375 30.0873C42.7375 30.4492 42.8811 30.7966 43.137 31.0533L45.8851 33.7938C47.4764 31.222 49.3173 28.8126 51.3812 26.6002C50.1391 26.1323 48.7876 26.0334 47.4904 26.3155C46.193 26.5976 45.0055 27.2485 44.0714 28.1895Z" fill="white"/>
</g>
<defs>
<clipPath id="clip0_798_21783">
<rect width="93" height="74" fill="white"/>
</clipPath>
</defs>
</svg>
