<svg width="62" height="50" viewBox="0 0 62 50" fill="none" xmlns="http://www.w3.org/2000/svg">
<g clip-path="url(#clip0_933_10111)">
<path d="M43.4 25C43.4 12.9188 33.6846 3.125 21.7 3.125C9.71542 3.125 0 12.9188 0 25C0 37.0812 9.71542 46.875 21.7 46.875C33.6846 46.875 43.4 37.0812 43.4 25Z" fill="#FB6514" fill-opacity="0.2"/>
<path d="M60.4502 25C60.4502 12.0558 50.0408 1.5625 37.2002 1.5625C24.3596 1.5625 13.9502 12.0558 13.9502 25C13.9502 37.9442 24.3596 48.4375 37.2002 48.4375C50.0408 48.4375 60.4502 37.9442 60.4502 25Z" fill="#EB3609"/>
<path d="M60.4502 25C60.4502 12.0558 50.0408 1.5625 37.2002 1.5625C24.3596 1.5625 13.9502 12.0558 13.9502 25C13.9502 37.9442 24.3596 48.4375 37.2002 48.4375C50.0408 48.4375 60.4502 37.9442 60.4502 25Z" stroke="white" stroke-width="4"/>
<path d="M28 35H46" stroke="white" stroke-width="1.5" stroke-linecap="round" stroke-linejoin="round"/>
<path d="M28 24C28 23.0572 28 22.5858 28.2929 22.2929C28.5858 22 29.0572 22 30 22C30.9428 22 31.4142 22 31.7071 22.2929C32 22.5858 32 23.0572 32 24V30C32 30.9428 32 31.4142 31.7071 31.7071C31.4142 32 30.9428 32 30 32C29.0572 32 28.5858 32 28.2929 31.7071C28 31.4142 28 30.9428 28 30V24Z" fill="white" stroke="white" stroke-width="1.5"/>
<path d="M35 20C35 19.0572 35 18.5858 35.2929 18.2929C35.5858 18 36.0572 18 37 18C37.9428 18 38.4142 18 38.7071 18.2929C39 18.5858 39 19.0572 39 20V30C39 30.9428 39 31.4142 38.7071 31.7071C38.4142 32 37.9428 32 37 32C36.0572 32 35.5858 32 35.2929 31.7071C35 31.4142 35 30.9428 35 30V20Z" fill="white" stroke="white" stroke-width="1.5"/>
<path d="M42 17C42 16.0572 42 15.5858 42.2929 15.2929C42.5858 15 43.0572 15 44 15C44.9428 15 45.4142 15 45.7071 15.2929C46 15.5858 46 16.0572 46 17V30C46 30.9428 46 31.4142 45.7071 31.7071C45.4142 32 44.9428 32 44 32C43.0572 32 42.5858 32 42.2929 31.7071C42 31.4142 42 30.9428 42 30V17Z" fill="white" stroke="white" stroke-width="1.5"/>
</g>
<defs>
<clipPath id="clip0_933_10111">
<rect width="62" height="50" fill="white"/>
</clipPath>
</defs>
</svg>
