<svg width="88" height="70" viewBox="0 0 88 70" fill="none" xmlns="http://www.w3.org/2000/svg">
<g clip-path="url(#clip0_1956_3453)">
<path opacity="0.2" d="M61.5997 34.9986C61.5997 17.8991 47.6585 4.03711 30.4612 4.03711C13.2639 4.03711 -0.677246 17.8991 -0.677246 34.9986C-0.677246 52.0982 13.2639 65.9602 30.4612 65.9602C47.6585 65.9602 61.5997 52.0982 61.5997 34.9986Z" fill="#EB3609"/>
<path d="M85.5 35.5C85.5 17.2746 70.7254 2.5 52.5 2.5C34.2746 2.5 19.5 17.2746 19.5 35.5C19.5 53.7254 34.2746 68.5 52.5 68.5C70.7254 68.5 85.5 53.7254 85.5 35.5Z" fill="#EB3609"/>
<path d="M84.6156 35.0011C84.6156 17.158 70.0683 2.69336 52.1233 2.69336C34.1783 2.69336 19.631 17.158 19.631 35.0011C19.631 52.8441 34.1783 67.3087 52.1233 67.3087C70.0683 67.3087 84.6156 52.8441 84.6156 35.0011Z" stroke="white" stroke-width="4"/>
<path d="M45.0455 47.8867C45.0455 49.9254 46.6938 51.5781 48.7273 51.5781H55.2727C57.3062 51.5781 58.9545 49.9254 58.9545 47.8867V45.6719H45.0455V47.8867ZM49.9545 56.5H54.0455C55.4011 56.5 56.5 55.3982 56.5 54.0391H47.5C47.5 55.3982 48.5989 56.5 49.9545 56.5ZM52 14.5C44.5561 14.5 38.5 20.5719 38.5 28.0352C38.5 31.5189 39.8175 34.8283 42.2098 37.3537C43.7518 38.9815 44.7096 41.0266 44.972 43.2109H59.0281C59.2904 41.0265 60.2482 38.9814 61.7903 37.3537C64.1825 34.8283 65.5 31.5189 65.5 28.0352C65.5 20.5719 59.4439 14.5 52 14.5ZM52 35.8281C51.3222 35.8281 50.7727 35.2772 50.7727 34.5977C50.7727 33.9181 51.3222 33.3672 52 33.3672C52.6778 33.3672 53.2273 33.9181 53.2273 34.5977C53.2273 35.2772 52.6778 35.8281 52 35.8281ZM53.8592 27.9406C53.6693 28.0521 53.2273 28.3682 53.2273 28.8918V29.6758C53.2273 30.3553 52.6778 30.9062 52 30.9062C51.3222 30.9062 50.7727 30.3553 50.7727 29.6758V28.8918C50.7727 27.6453 51.4628 26.4959 52.6185 25.8172C52.9941 25.5967 53.2273 25.1892 53.2273 24.754C53.2273 24.0755 52.6767 23.5235 52 23.5235C51.3233 23.5235 50.7727 24.0755 50.7727 24.754C50.7727 25.4335 50.2232 25.9845 49.5455 25.9845C48.8677 25.9845 48.3182 25.4335 48.3182 24.754C48.3182 22.7185 49.9698 21.0626 52 21.0626C54.0302 21.0626 55.6818 22.7185 55.6818 24.754C55.6818 26.0593 54.9834 27.2803 53.8592 27.9406Z" fill="white"/>
</g>
<defs>
<clipPath id="clip0_1956_3453">
<rect width="88" height="70" fill="white"/>
</clipPath>
</defs>
</svg>
