<svg width="50" height="50" viewBox="0 0 50 50" fill="none" xmlns="http://www.w3.org/2000/svg">
<path d="M43.75 47.3945H6.25C5.39583 47.3945 4.6875 46.6862 4.6875 45.832C4.6875 44.9779 5.39583 44.2695 6.25 44.2695H43.75C44.6042 44.2695 45.3125 44.9779 45.3125 45.832C45.3125 46.6862 44.6042 47.3945 43.75 47.3945Z" fill="#EB3609"/>
<path d="M11.6667 17.457H8.33333C7.1875 17.457 6.25 18.3945 6.25 19.5404V37.4987C6.25 38.6446 7.1875 39.5821 8.33333 39.5821H11.6667C12.8125 39.5821 13.75 38.6446 13.75 37.4987V19.5404C13.75 18.3737 12.8125 17.457 11.6667 17.457Z" fill="#EB3609"/>
<path d="M26.6667 10.8105H23.3333C22.1875 10.8105 21.25 11.748 21.25 12.8939V37.498C21.25 38.6438 22.1875 39.5813 23.3333 39.5813H26.6667C27.8125 39.5813 28.75 38.6438 28.75 37.498V12.8939C28.75 11.748 27.8125 10.8105 26.6667 10.8105Z" fill="#EB3609"/>
<path d="M41.6667 4.16797H38.3333C37.1875 4.16797 36.25 5.10547 36.25 6.2513V37.5013C36.25 38.6471 37.1875 39.5846 38.3333 39.5846H41.6667C42.8125 39.5846 43.75 38.6471 43.75 37.5013V6.2513C43.75 5.10547 42.8125 4.16797 41.6667 4.16797Z" fill="#EB3609"/>
</svg>
