<svg width="95" height="80" viewBox="0 0 95 80" fill="none" xmlns="http://www.w3.org/2000/svg">
<g clip-path="url(#clip0_1553_19666)">
<path opacity="0.1" d="M73.5 41.5C73.5 21.3416 57.1584 5 37 5C16.8416 5 0.5 21.3416 0.5 41.5C0.5 61.6584 16.8416 78 37 78C57.1584 78 73.5 61.6584 73.5 41.5Z" fill="#6D61FF"/>
<path d="M94 40C94 19.2893 77.2107 2.5 56.5 2.5C35.7893 2.5 19 19.2893 19 40C19 60.7107 35.7893 77.5 56.5 77.5C77.2107 77.5 94 60.7107 94 40Z" fill="#6D61FF"/>
<path d="M94 40C94 19.2893 77.2107 2.5 56.5 2.5C35.7893 2.5 19 19.2893 19 40C19 60.7107 35.7893 77.5 56.5 77.5C77.2107 77.5 94 60.7107 94 40Z" stroke="white" stroke-width="4"/>
<path d="M74.388 33.908C73.7986 33.518 73.0706 33.414 72.4033 33.622L68.564 34.7833L66.2153 32.6253C64.8546 31.3687 63.182 30.476 61.388 30.034L57.8 29.15C55.8153 28.656 53.7266 28.7253 51.7766 29.358L46.386 31.0826C46.1346 31.1606 45.9353 31.3513 45.84 31.594L43.2573 38.2586C43.032 38.8566 43.0493 39.5153 43.318 40.096C43.578 40.6767 44.0546 41.1273 44.6526 41.3526C45.892 41.8207 47.2786 41.1966 47.738 39.966L49.5753 35.2687L52.4526 34.6013L49.7746 44.4466L47.5646 47.8526L39.626 49.2046C39.0251 49.3084 38.4829 49.6282 38.1014 50.1039C37.7199 50.5795 37.5254 51.1783 37.5546 51.7873C37.5901 52.4474 37.8852 53.0666 38.3755 53.5099C38.8659 53.9532 39.5117 54.1845 40.172 54.1533L47.1226 53.798C49.1246 53.694 51.0226 52.7753 52.3486 51.2673L54.7406 48.5287L59.334 52.9833L59.022 58.946C59.0044 59.2963 59.0581 59.6466 59.1799 59.9756C59.3016 60.3046 59.4889 60.6054 59.7304 60.8598C59.9719 61.1143 60.2625 61.317 60.5847 61.4558C60.9068 61.5946 61.2538 61.6666 61.6046 61.6673C62.792 61.6673 63.8493 60.8526 64.118 59.648L65.21 54.8466C65.7733 52.3246 64.976 49.638 63.1213 47.844L60.7813 45.5733L62.7053 38.4927L67.1946 40.746C67.42 40.8587 67.6973 40.8673 67.9313 40.7633L74.05 38.0333C74.5079 37.8297 74.8891 37.4856 75.1384 37.0509C75.3877 36.6162 75.4922 36.1134 75.4366 35.6153C75.3586 34.9133 74.9773 34.2893 74.388 33.908ZM63.2426 29.0027C66.1806 29.0027 68.5726 26.602 68.5726 23.664C68.5726 20.726 66.1806 18.334 63.2426 18.334C60.296 18.334 57.904 20.726 57.904 23.664C57.904 26.602 60.296 29.0027 63.2426 29.0027Z" fill="white"/>
</g>
<defs>
<clipPath id="clip0_1553_19666">
<rect width="95" height="80" fill="white"/>
</clipPath>
</defs>
</svg>
