<svg width="62" height="50" viewBox="0 0 62 50" fill="none" xmlns="http://www.w3.org/2000/svg">
<g clip-path="url(#clip0_828_82854)">
<path opacity="0.2" d="M43.4 25C43.4 12.9188 33.6846 3.125 21.7 3.125C9.71542 3.125 0 12.9188 0 25C0 37.0812 9.71542 46.875 21.7 46.875C33.6846 46.875 43.4 37.0812 43.4 25Z" fill="#6D61FF"/>
<path d="M60.4502 25C60.4502 12.0558 50.0408 1.5625 37.2002 1.5625C24.3596 1.5625 13.9502 12.0558 13.9502 25C13.9502 37.9442 24.3596 48.4375 37.2002 48.4375C50.0408 48.4375 60.4502 37.9442 60.4502 25Z" fill="#6D61FF"/>
<path d="M60.4502 25C60.4502 12.0558 50.0408 1.5625 37.2002 1.5625C24.3596 1.5625 13.9502 12.0558 13.9502 25C13.9502 37.9442 24.3596 48.4375 37.2002 48.4375C50.0408 48.4375 60.4502 37.9442 60.4502 25Z" stroke="white" stroke-width="4"/>
<circle cx="36.5832" cy="25.0827" r="7.91667" fill="white" stroke="white" stroke-width="1.5"/>
<path d="M42.4165 30.916L45.3332 33.8327" stroke="white" stroke-width="1.5" stroke-linecap="round"/>
</g>
<defs>
<clipPath id="clip0_828_82854">
<rect width="62" height="50" fill="white"/>
</clipPath>
</defs>
</svg>
