<svg width="16" height="16" viewBox="0 0 16 16" fill="none" xmlns="http://www.w3.org/2000/svg">
<path d="M1.66311 7.30713C1.3482 7.30804 1.03997 7.40039 0.774083 7.5735C0.508199 7.7466 0.295525 7.9934 0.160666 8.28532C0.0258074 8.57725 -0.025725 8.90238 0.0120309 9.22309C0.0497867 9.54381 0.175288 9.84701 0.374015 10.0976L4.61041 15.4212C4.76145 15.6136 4.95507 15.7662 5.17518 15.8665C5.39529 15.9667 5.63553 16.0116 5.87595 15.9975C6.39016 15.9691 6.8544 15.687 7.15038 15.223L15.9504 0.684527C15.9519 0.682098 15.9534 0.679698 15.9549 0.677328C16.0375 0.547275 16.0107 0.289544 15.8403 0.127634C15.7935 0.0831714 15.7383 0.049012 15.6781 0.0272591C15.6179 0.00550627 15.5541 -0.00337947 15.4904 0.00114937C15.4268 0.00567821 15.3647 0.0235258 15.308 0.0535926C15.2513 0.0836594 15.2013 0.125309 15.1609 0.175977C15.1577 0.17996 15.1545 0.183884 15.1511 0.187747L6.27615 10.4741C6.24238 10.5132 6.20137 10.5451 6.15549 10.5678C6.10961 10.5906 6.05978 10.6038 6.0089 10.6066C5.95802 10.6094 5.9071 10.6018 5.8591 10.5843C5.8111 10.5668 5.76697 10.5396 5.72928 10.5044L2.78384 7.75485C2.47793 7.46718 2.0781 7.30746 1.66311 7.30713Z" fill="white"/>
</svg>
