<svg width="46" height="46" viewBox="0 0 46 46" fill="none" xmlns="http://www.w3.org/2000/svg">
<rect width="46" height="46" rx="23" fill="#FAFBFF"/>
<path d="M15.0789 22.1339C14.6852 22.135 14.3 22.2505 13.9676 22.4669C13.6352 22.6833 13.3694 22.9917 13.2008 23.3567C13.0323 23.7216 12.9678 24.128 13.015 24.5289C13.0622 24.9298 13.2191 25.3088 13.4675 25.622L18.763 32.2765C18.9518 32.517 19.1938 32.7078 19.469 32.8331C19.7441 32.9584 20.0444 33.0145 20.3449 32.9968C20.9877 32.9614 21.568 32.6087 21.938 32.0287L32.9381 13.8557C32.9399 13.8526 32.9417 13.8496 32.9437 13.8467C33.0469 13.6841 33.0134 13.3619 32.8004 13.1595C32.7419 13.104 32.6729 13.0613 32.5976 13.0341C32.5224 13.0069 32.4426 12.9958 32.363 13.0014C32.2834 13.0071 32.2059 13.0294 32.135 13.067C32.0642 13.1046 32.0016 13.1566 31.9511 13.22C31.9472 13.225 31.9431 13.2299 31.9389 13.2347L20.8452 26.0926C20.803 26.1415 20.7517 26.1814 20.6944 26.2098C20.637 26.2382 20.5747 26.2547 20.5111 26.2582C20.4475 26.2618 20.3839 26.2523 20.3239 26.2304C20.2639 26.2085 20.2087 26.1745 20.1616 26.1305L16.4798 22.6936C16.0974 22.334 15.5976 22.1343 15.0789 22.1339Z" fill="#EB3609"/>
</svg>
