<svg width="36" height="36" viewBox="0 0 36 36" fill="none" xmlns="http://www.w3.org/2000/svg">
<g clip-path="url(#clip0_807_23265)">
<path fill-rule="evenodd" clip-rule="evenodd" d="M35.1395 18.2331H31.4966C31.2828 18.2333 31.0769 18.3146 30.9207 18.4607C30.7644 18.6067 30.6694 18.8066 30.6549 19.02C30.2014 25.7181 24.5813 30.9648 17.8605 30.9648C10.7891 30.9648 5.03615 25.2118 5.03615 18.1404C5.03615 11.4623 10.0444 5.97149 16.6859 5.36892C16.8956 5.34999 17.0907 5.25326 17.2328 5.09775C17.3748 4.94225 17.4535 4.73922 17.4534 4.52861V0.884032C17.4535 0.767444 17.4293 0.65211 17.3826 0.545306C17.3358 0.438502 17.2675 0.342547 17.1818 0.263493C17.0961 0.18444 16.9949 0.124003 16.8847 0.0859968C16.7745 0.0479904 16.6576 0.0332388 16.5414 0.0426728C13.1046 0.325394 9.82128 1.58936 7.08209 3.68423C4.3429 5.7791 2.26309 8.61669 1.09005 11.8595C-0.0829791 15.1023 -0.299863 18.6137 0.465202 21.9762C1.23027 25.3387 2.94508 28.4107 5.40566 30.8267C7.86624 33.2427 10.969 34.9011 14.3449 35.6046C17.7208 36.3081 21.2278 36.0271 24.4486 34.7951C27.6694 33.563 30.4685 31.4317 32.513 28.6546C34.5574 25.8776 35.7612 22.5718 35.9811 19.1304C35.9883 19.0154 35.9719 18.9001 35.9328 18.7917C35.8938 18.6833 35.833 18.584 35.7542 18.4999C35.6753 18.4159 35.5801 18.3489 35.4744 18.303C35.3687 18.2572 35.2547 18.2334 35.1395 18.2333V18.2331ZM24.3557 10.2693C24.5166 10.1756 24.704 10.1379 24.8886 10.1618C25.0732 10.1858 25.2448 10.2701 25.3764 10.4017C25.5081 10.5333 25.5926 10.7048 25.6167 10.8894C25.6408 11.074 25.6031 11.2614 25.5096 11.4224L19.7215 21.3976C19.426 21.9191 19.0121 22.3639 18.5132 22.6961C18.0143 23.0283 17.4443 23.2386 16.8491 23.3101C16.6722 23.3333 16.4939 23.345 16.3155 23.3453C15.8071 23.3462 15.3037 23.2455 14.8348 23.0492C14.3659 22.8529 13.941 22.5648 13.585 22.202C13.5833 22.2006 13.5819 22.1985 13.5808 22.1977C13.1574 21.7747 12.8369 21.2601 12.644 20.6935C12.4511 20.1269 12.391 19.5236 12.4683 18.9301C12.5456 18.3366 12.7583 17.7689 13.09 17.2707C13.4216 16.7725 13.8634 16.3571 14.381 16.0568L24.3557 10.2691V10.2693ZM30.6014 16.6716C30.315 14.144 29.2786 11.76 27.6258 9.82645C27.4881 9.66512 27.4164 9.45781 27.4248 9.24589C27.4333 9.03398 27.5214 8.83305 27.6715 8.68324L30.3006 6.05355C30.3821 5.97197 30.4795 5.90797 30.5868 5.8655C30.694 5.82303 30.8089 5.80299 30.9242 5.80661C31.0395 5.81023 31.1528 5.83745 31.2572 5.88657C31.3615 5.93569 31.4547 6.00568 31.531 6.09222C34.0981 8.99137 35.652 12.6472 35.9578 16.5075C35.9671 16.6237 35.9523 16.7405 35.9142 16.8507C35.8761 16.9609 35.8157 17.062 35.7366 17.1477C35.6576 17.2334 35.5616 17.3017 35.4548 17.3485C35.3481 17.3953 35.2328 17.4195 35.1162 17.4195H31.4402C31.233 17.4196 31.0329 17.3435 30.8782 17.2055C30.7235 17.0676 30.625 16.8775 30.6014 16.6716ZM26.4784 8.3747C26.2847 8.37482 26.0969 8.30798 25.9468 8.18549C23.9755 6.57802 21.5684 5.59708 19.0351 5.36884C18.8253 5.34991 18.6302 5.25319 18.4881 5.09772C18.346 4.94224 18.2672 4.73924 18.2672 4.52861V0.860829C18.2673 0.745585 18.2909 0.631576 18.3368 0.525834C18.3826 0.420092 18.4496 0.324858 18.5336 0.246005C18.6177 0.167153 18.717 0.106353 18.8254 0.0673549C18.9339 0.0283572 19.0492 0.0119887 19.1642 0.0192587C23.0293 0.254281 26.713 1.74086 29.6587 4.25439C29.7475 4.32985 29.8197 4.42289 29.8708 4.52765C29.9219 4.63242 29.9507 4.74663 29.9555 4.86309C29.9602 4.97954 29.9408 5.09572 29.8984 5.2043C29.856 5.31288 29.7916 5.41149 29.7092 5.49393L27.0754 8.12798C26.997 8.20637 26.9039 8.26851 26.8015 8.31085C26.6991 8.35319 26.5893 8.37489 26.4784 8.3747Z" fill="#EB3609"/>
</g>
<defs>
<clipPath id="clip0_807_23265">
<rect width="36" height="36" fill="white"/>
</clipPath>
</defs>
</svg>
